<?xml version="1.0" standalone="no"?>

<!DOCTYPE svg PUBLIC "-//W3C//DTD SVG 20010904//EN"

 "http://www.w3.org/TR/2001/REC-SVG-20010904/DTD/svg10.dtd">

<svg version="1.0" xmlns="http://www.w3.org/2000/svg"

 width="784.000000pt" height="1024.000000pt" viewBox="0 0 784.000000 1024.000000"

 preserveAspectRatio="xMidYMid meet">

<path fill="#fefefe" stroke="none" d="
M0 512

L0 0

L392 0

L784 0

L784 512

L784 1024

L392 1024

L0 1024

L0 512

Z

"/>

<path fill="#f2ee02" stroke="none" d="
M367 967

C310 963 256 951 205 932

C188 925 184 923 184 921

C183 920 183 914 183 909

C183 899 182 899 180 897

C179 896 175 895 172 895

C169 894 166 893 165 893

C160 890 150 883 138 874

C131 868 123 862 121 860

C111 854 98 848 91 848

L87 848

L91 844

C98 838 112 828 120 824

C129 820 138 818 150 818

L158 818

L157 814

C157 806 151 791 140 768

C133 755 128 745 128 744

C128 744 131 744 134 744

C150 746 168 753 179 761

C189 769 204 783 209 789

C213 795 213 795 213 804

C213 810 213 812 214 813

C216 814 244 824 258 827

C300 839 341 846 380 849

C387 849 390 849 390 848

C389 846 373 829 365 823

C344 805 326 795 301 788

C295 787 279 783 265 780

C226 771 212 766 194 757

C176 749 152 731 143 720

C127 701 118 674 115 639

C115 633 114 540 114 431

C114 316 114 232 113 229

C111 217 105 207 95 199

C92 196 87 192 85 190

C81 186 80 185 80 182

C80 180 81 178 83 177

L86 175

L394 175

L702 175

L705 177

C707 178 708 180 708 182

C708 185 707 186 701 191

C688 204 682 209 680 215

C674 228 674 216 674 433

C674 543 673 636 673 641

C669 678 659 705 642 723

C637 729 620 742 609 749

C590 761 566 770 530 778

C499 785 489 787 477 792

C457 798 441 808 423 823

C414 830 398 847 398 848

C398 849 403 849 409 849

C457 846 506 837 563 820

C580 815 580 815 580 812

C577 796 577 795 578 793

C580 789 609 762 618 757

C631 748 647 743 659 743

L666 744

L656 759

C650 767 644 776 642 779

C640 782 637 788 636 792

C633 800 631 814 633 816

C633 816 637 817 641 818

C658 819 676 826 697 839

C704 844 706 846 704 846

C703 846 697 847 691 849

C676 853 668 857 656 867

C651 871 638 880 628 887

C617 894 608 901 608 902

C608 903 608 906 608 910

C609 918 608 920 599 923

C595 925 586 928 579 932

C541 948 491 961 445 966

C428 967 385 968 367 967

Z

M545 166

C520 162 478 157 444 154

C436 153 427 153 424 152

C413 152 356 152 341 153

C319 155 290 158 264 161

C251 163 239 164 236 164

L232 165

L230 157

C229 153 225 137 222 121

C215 92 214 87 216 86

C217 86 224 83 233 81

C250 77 250 77 252 85

C256 100 256 100 258 100

C260 99 263 99 266 98

L272 97

L273 84

C273 75 274 71 275 70

C275 69 287 68 300 66

C313 65 325 64 326 64

C328 63 330 63 331 64

C333 65 336 71 337 80

L339 88

L347 87

C359 87 359 87 359 75

C359 60 357 61 386 60

C417 59 418 59 420 63

C421 64 422 70 422 75

C422 80 423 84 423 84

C423 85 427 85 432 85

C437 86 440 85 441 85

C441 84 442 80 443 76

C443 67 445 65 451 65

C453 66 463 67 474 68

C498 69 501 70 502 72

C503 73 504 78 504 85

C504 91 504 97 504 97

C505 97 528 101 530 101

C530 101 531 98 532 94

C534 83 535 80 537 80

C540 79 554 84 564 88

C570 91 571 92 571 95

C571 99 555 165 553 166

C551 167 551 167 545 166

Z

"/>

<path fill="#cb0221" stroke="none" d="
M367 967

C310 963 256 951 205 932

C188 925 184 923 184 921

C183 920 183 914 183 909

C183 899 182 899 180 897

C179 896 175 895 172 895

C169 894 166 893 165 893

C160 890 150 883 138 874

C131 868 123 862 121 860

C111 854 98 848 91 848

L87 848

L91 844

C98 838 112 828 120 824

C129 820 138 818 150 818

L158 818

L157 814

C157 806 151 791 140 768

C133 755 128 745 128 744

C128 744 131 744 134 744

C150 746 168 753 179 761

C189 769 204 783 209 789

C213 795 213 795 213 804

C213 810 213 812 214 813

C216 814 244 824 258 827

C300 839 341 846 380 849

C387 849 390 849 390 848

C389 846 373 829 365 823

C344 805 326 795 301 788

C295 787 279 783 265 780

C226 771 212 766 194 757

C176 749 152 731 143 720

C127 701 118 674 115 639

C115 633 114 540 114 431

C114 316 114 232 113 229

C111 217 105 207 95 199

C92 196 87 192 85 190

C81 186 80 185 80 182

C80 180 81 178 83 177

L86 175

L394 175

L702 175

L705 177

C707 178 708 180 708 182

C708 185 707 186 701 191

C688 204 682 209 680 215

C674 228 674 216 674 433

C674 543 673 636 673 641

C669 678 659 705 642 723

C637 729 620 742 609 749

C590 761 566 770 530 778

C499 785 489 787 477 792

C457 798 441 808 423 823

C414 830 398 847 398 848

C398 849 403 849 409 849

C457 846 506 837 563 820

C580 815 580 815 580 812

C577 796 577 795 578 793

C580 789 609 762 618 757

C631 748 647 743 659 743

L666 744

L656 759

C650 767 644 776 642 779

C640 782 637 788 636 792

C633 800 631 814 633 816

C633 816 637 817 641 818

C658 819 676 826 697 839

C704 844 706 846 704 846

C703 846 697 847 691 849

C676 853 668 857 656 867

C651 871 638 880 628 887

C617 894 608 901 608 902

C608 903 608 906 608 910

C609 918 608 920 599 923

C595 925 586 928 579 932

C541 948 491 961 445 966

C428 967 385 968 367 967

Z

M422 961

C470 957 524 946 574 928

C588 922 600 917 601 915

C602 914 602 809 602 808

C601 808 598 809 595 811

C584 817 547 829 516 837

C469 849 433 854 392 853

C330 853 288 845 217 819

C206 815 195 812 193 811

L189 811

L189 841

C191 911 191 918 192 920

C193 920 199 923 206 926

C253 945 306 957 356 961

C371 962 406 962 422 961

Z

M179 888

C181 887 181 882 181 845

L181 803

L184 800

C185 798 189 796 194 795

C198 794 202 793 202 792

C203 792 193 782 185 774

C175 765 165 759 154 755

C146 752 138 750 138 751

C138 752 139 754 141 756

C152 773 162 800 165 823

C166 825 165 826 164 827

C163 827 155 828 146 828

C137 828 127 828 124 829

C116 831 109 834 105 839

L102 842

L108 844

C120 847 130 854 152 873

C166 885 173 890 177 890

C177 890 179 889 179 888

Z

M623 883

C628 880 636 874 641 870

C658 854 672 845 683 844

C687 844 690 843 691 843

C691 842 682 836 675 832

C664 828 657 826 641 825

C627 825 627 825 626 822

C623 814 629 788 638 773

C640 769 644 762 647 758

C650 754 652 750 652 750

C650 750 634 755 627 758

C618 763 613 767 599 780

C587 792 587 792 590 793

C599 795 607 797 608 799

C609 800 610 806 610 843

C610 866 610 886 610 887

C611 890 613 889 623 883

Z

M429 807

C455 788 471 782 521 771

C560 762 575 758 592 749

C600 745 615 735 626 726

C645 711 656 690 662 658

C664 647 664 644 665 522

C665 234 665 229 667 223

C672 209 679 199 691 190

L698 184

L546 183

C462 183 326 183 242 183

L90 184

L98 189

C109 199 116 208 121 222

C122 227 123 237 123 436

C124 664 123 650 129 672

C137 701 146 714 170 732

C195 751 214 759 251 767

C260 769 274 773 283 775

C327 785 353 798 381 826

L394 839

L407 826

C414 819 424 811 429 807

Z

M599 804

C599 802 594 800 589 800

C584 800 583 800 585 806

L586 811

L592 808

C596 807 599 805 599 804

Z

M205 805

C205 802 205 801 203 801

C201 801 193 804 193 805

C193 806 201 809 204 809

C205 809 205 808 205 805

Z

M545 166

C520 162 478 157 444 154

C436 153 427 153 424 152

C413 152 356 152 341 153

C319 155 290 158 264 161

C251 163 239 164 236 164

L232 165

L230 157

C229 153 225 137 222 121

C215 92 214 87 216 86

C217 86 224 83 233 81

C250 77 250 77 252 85

C256 100 256 100 258 100

C260 99 263 99 266 98

L272 97

L273 84

C273 75 274 71 275 70

C275 69 287 68 300 66

C313 65 325 64 326 64

C328 63 330 63 331 64

C333 65 336 71 337 80

L339 88

L347 87

C359 87 359 87 359 75

C359 60 357 61 386 60

C417 59 418 59 420 63

C421 64 422 70 422 75

C422 80 423 84 423 84

C423 85 427 85 432 85

C437 86 440 85 441 85

C441 84 442 80 443 76

C443 67 445 65 451 65

C453 66 463 67 474 68

C498 69 501 70 502 72

C503 73 504 78 504 85

C504 91 504 97 504 97

C505 97 528 101 530 101

C530 101 531 98 532 94

C534 83 535 80 537 80

C540 79 554 84 564 88

C570 91 571 92 571 95

C571 99 555 165 553 166

C551 167 551 167 545 166

Z

M549 155

C549 152 550 148 550 146

C550 141 549 141 539 139

L533 139

L532 144

C531 147 530 151 530 153

C530 156 531 156 536 158

C538 159 542 160 544 160

C547 160 548 159 549 155

Z

M253 157

C258 156 262 155 263 155

C264 153 262 140 260 139

C258 137 238 142 235 144

C234 145 234 148 237 155

C239 160 239 160 253 157

Z

M525 154

C526 153 528 147 528 141

C528 138 528 137 526 137

C525 136 514 134 502 132

C479 127 460 124 447 124

L440 124

L439 134

L439 145

L443 145

C446 146 461 148 477 150

C493 151 509 153 511 154

C517 155 523 155 525 154

Z

M290 151

C300 150 316 149 328 148

C339 147 348 146 349 146

C350 145 351 124 350 123

C349 123 325 124 309 127

C295 128 268 134 266 135

C265 136 265 145 266 150

C266 154 267 154 290 151

Z

M434 142

C434 141 435 136 435 131

L435 123

L420 122

C408 121 357 122 356 122

C356 122 356 128 357 134

L357 145

L396 145

L434 145

L434 142

Z

M260 132

C272 129 288 125 296 123

C303 122 310 120 310 120

C311 119 310 108 308 101

L308 99

L296 101

C274 105 255 109 237 115

C228 117 228 117 231 129

C234 138 234 138 236 138

C237 137 247 135 260 132

Z

M553 133

C554 130 554 126 554 123

L555 117

L535 111

C521 108 510 105 496 103

C485 101 475 100 475 100

C475 101 474 121 474 121

C475 121 541 135 546 136

C550 137 551 137 553 133

Z

M356 117

C372 116 386 115 387 115

C389 115 389 114 389 105

L389 95

L366 95

C354 96 342 96 341 96

C339 97 334 97 330 97

C326 98 321 98 318 99

C314 99 314 99 314 103

C314 105 314 110 315 113

L315 120

L321 120

C325 119 341 118 356 117

Z

M469 109

C470 103 470 100 469 99

C467 97 440 95 418 95

C406 95 397 95 396 95

C396 96 396 100 396 105

L396 115

L407 115

C413 115 425 116 433 116

C440 117 450 117 455 118

C468 119 468 119 469 109

Z

M562 105

C564 98 564 97 563 96

C561 94 545 88 543 88

C541 88 538 104 539 106

C541 107 557 113 559 113

C560 113 561 110 562 105

Z

M238 109

C244 107 249 106 249 105

C250 105 244 87 243 86

C242 84 223 90 222 92

C220 93 226 112 228 112

C228 112 233 111 238 109

Z

M306 94

C317 92 327 90 328 90

C329 89 329 87 327 80

C327 75 326 71 325 71

C324 70 284 74 282 75

C281 76 281 96 282 97

C282 98 283 98 284 97

C286 97 295 96 306 94

Z

M495 86

C495 76 495 76 493 76

C488 75 463 72 458 72

L452 72

L452 78

C451 86 451 91 452 91

C452 91 460 92 470 94

C480 96 489 97 491 97

L495 97

L495 86

Z

M413 87

C415 86 413 70 412 69

C410 68 397 68 380 69

L367 69

L367 78

C366 83 366 88 367 88

C367 89 412 88 413 87

Z

M387 946

C387 946 388 945 389 944

C390 943 393 936 396 929

C399 922 402 916 402 916

C402 916 405 922 409 930

C412 938 415 944 416 945

C419 946 416 946 410 946

C406 946 404 945 405 945

C406 944 406 943 405 941

C405 939 404 938 399 938

C395 938 394 938 393 941

C392 944 392 944 394 945

C396 946 396 946 392 946

C389 946 387 946 387 946

Z

M403 934

C402 933 401 931 401 930

C400 926 399 927 397 932

L395 936

L399 936

C403 936 403 936 403 934

Z

M369 944

C371 943 371 941 371 930

L372 918

L369 918

C367 918 365 919 364 921

L362 925

L362 920

L363 916

L374 916

C381 916 387 916 387 917

C388 917 388 919 388 921

L388 926

L387 922

C385 919 381 917 379 918

C379 919 378 925 378 931

C378 944 378 944 380 945

C382 946 381 946 375 946

C367 946 367 946 369 944

Z

M422 944

C420 942 420 941 419 930

C418 921 418 918 416 917

C415 916 416 916 422 916

C426 916 429 916 428 917

C426 918 425 918 426 929

C427 938 427 940 429 942

C430 944 432 944 433 944

C438 942 439 941 439 930

C439 919 438 917 435 916

C434 916 441 915 449 914

C465 913 465 913 468 915

C472 918 472 924 469 927

L466 929

L471 934

C476 940 478 941 480 939

C480 938 482 931 484 923

L488 908

L496 920

C501 927 505 934 506 934

C508 936 507 936 502 937

C494 938 493 938 495 937

C497 935 497 935 495 933

C494 930 493 930 489 931

C484 931 483 932 483 936

C483 937 484 938 485 939

C487 940 486 940 480 941

C475 941 471 942 470 942

C469 942 466 939 464 936

C461 933 458 930 458 930

C457 930 457 938 458 940

C459 941 460 942 461 942

C464 942 461 943 454 944

C447 945 447 945 449 943

C451 942 451 941 449 930

C449 923 448 917 447 917

C447 916 445 916 444 916

C442 916 441 917 441 928

C441 934 440 940 440 942

C437 946 427 948 422 944

Z

M491 928

C492 927 492 927 490 924

C489 922 487 920 487 920

C487 920 486 922 485 925

C484 929 484 929 487 929

C488 929 490 929 491 928

Z

M462 926

C466 923 464 915 458 915

C455 915 455 916 456 923

C456 928 458 929 462 926

Z

M347 944

C346 943 346 943 347 943

C349 943 349 943 349 940

C348 936 347 936 342 935

C339 935 337 935 336 937

C334 939 335 942 337 942

C338 943 336 943 334 943

L329 943

L331 941

C332 940 336 933 340 927

C343 920 347 914 347 914

C347 914 350 920 352 927

C354 935 357 942 358 943

C359 945 359 945 354 945

C351 945 348 945 347 944

Z

M345 931

C344 923 343 923 341 928

C339 933 339 934 344 934

C346 934 346 934 345 931

Z

M320 942

C314 941 313 940 315 940

C317 939 318 937 319 928

C320 922 321 916 321 916

C320 916 317 921 313 927

C310 934 306 939 306 939

C306 939 304 933 303 927

C301 920 299 914 299 914

C299 913 298 918 297 924

C295 934 295 935 297 936

L299 938

L297 938

C296 938 293 937 292 937

C289 936 289 936 291 936

C293 935 293 935 295 921

C297 909 297 909 295 908

C293 907 294 907 298 908

C306 909 305 908 308 919

C310 930 310 931 317 918

L321 911

L325 912

C327 912 330 913 331 913

C333 914 333 914 331 914

C329 914 328 915 326 928

C325 940 325 940 327 941

C329 943 329 943 320 942

Z

M510 934

C511 933 512 931 512 930

C511 929 510 924 509 920

C507 910 505 907 502 907

C501 907 503 906 506 905

L511 904

L520 911

C525 914 529 917 529 916

C529 916 528 913 527 909

C526 905 525 903 523 902

L521 901

L524 901

C525 900 527 900 528 899

C530 899 530 899 529 901

C528 903 528 905 531 916

C533 923 534 929 534 930

C534 930 528 926 522 921

C515 916 510 912 509 912

C509 913 510 917 513 927

C514 931 514 932 517 932

C520 932 518 934 513 935

C509 935 509 935 510 934

Z

M260 930

C248 926 238 923 237 922

C237 922 237 922 238 921

C239 920 239 919 238 914

C236 911 235 908 235 907

C234 907 231 914 231 917

C231 918 232 919 232 920

C234 921 233 921 226 919

C220 916 218 915 221 915

C223 915 224 914 228 904

C232 892 232 891 230 890

C229 888 229 888 230 888

C231 888 234 890 237 891

C241 892 242 892 240 893

C239 894 238 895 237 898

C236 900 236 903 235 904

C235 904 237 904 242 902

C251 899 252 898 249 896

C247 894 245 894 266 900

C275 902 281 904 282 904

C282 904 281 907 281 909

C280 912 279 913 279 911

C279 908 275 904 271 903

C268 903 268 903 267 908

C266 915 267 916 271 912

C275 908 274 908 272 916

C270 924 269 926 269 921

C269 919 267 915 266 916

C265 917 263 924 263 926

C263 930 271 931 276 926

L279 924

L278 926

C276 931 275 933 274 933

C273 933 267 931 260 930

Z

M256 921

C262 903 262 899 258 899

C256 899 242 904 242 905

C242 907 248 923 249 925

C250 925 251 926 253 926

C255 926 255 925 256 921

Z

M542 922

C539 920 537 919 536 915

C533 910 534 903 537 899

C540 895 546 892 551 892

C554 892 555 892 555 890

C556 889 557 890 558 893

C559 896 560 898 560 899

C559 899 558 898 556 897

C554 895 552 894 550 894

C547 894 542 896 542 899

C540 904 542 914 547 918

C550 921 554 922 557 920

C559 918 559 918 558 915

C557 913 556 911 555 910

C553 909 554 909 559 907

C566 905 567 905 565 907

C564 908 564 909 565 912

C566 917 566 918 558 922

C551 925 548 925 542 922

Z

M570 916

C570 916 570 915 571 914

C572 914 572 909 571 898

C571 889 570 882 570 882

C571 882 576 887 583 892

C589 897 595 902 596 902

C598 902 596 904 591 906

C587 908 585 909 586 908

C587 906 587 906 585 903

L582 901

L578 903

C574 906 573 906 574 909

C574 911 575 911 577 911

C580 911 579 912 575 915

C572 916 570 917 570 916

Z

M577 901

L580 900

L577 897

C576 895 574 894 574 894

C573 894 573 896 573 899

C573 901 573 903 574 903

C574 903 575 902 577 901

Z

M204 909

C198 907 193 904 193 904

C193 904 194 903 195 903

C197 903 198 902 203 892

C208 880 208 880 207 878

C205 878 205 877 205 877

C206 877 227 887 227 887

C227 888 226 889 225 892

L224 896

L223 892

C223 889 222 887 220 886

C218 885 216 884 215 884

C214 884 210 893 211 894

C212 896 214 895 216 893

C217 891 219 890 219 890

C219 891 217 894 216 898

C212 905 212 905 212 902

C212 900 211 898 211 897

C209 896 209 896 208 899

C204 906 204 907 207 908

C211 911 214 910 217 908

C221 905 221 906 218 911

L216 915

L204 909

Z

M367 886

L359 874

L358 884

C357 893 357 894 359 895

C361 897 361 897 356 897

C352 897 351 897 353 896

C356 895 356 893 356 882

C356 868 356 869 354 868

C352 867 353 867 357 867

L363 867

L369 876

C376 886 377 886 377 876

C377 872 377 871 375 869

C373 868 373 868 387 868

C403 869 407 870 409 875

C412 880 411 888 409 892

C406 897 402 898 391 898

C384 898 382 898 384 897

C386 896 386 896 386 883

C386 870 385 869 384 869

C379 869 379 870 378 884

C378 892 377 898 377 898

C377 899 372 893 367 886

Z

M400 894

C403 892 404 884 403 879

C402 874 398 870 395 870

C393 870 393 871 393 883

C393 896 393 897 397 896

C398 896 400 895 400 894

Z

M415 897

C417 896 417 896 417 887

C416 882 416 876 416 874

C416 871 416 870 414 869

C412 868 413 868 419 868

C422 868 428 868 431 867

L436 867

L436 872

C436 876 436 876 435 874

C433 871 429 869 426 869

C424 869 423 870 423 874

C423 877 423 880 423 881

C424 883 428 880 429 877

L430 874

L430 877

C430 878 430 882 431 885

C431 890 431 890 430 888

C429 886 427 885 426 884

C424 883 424 883 424 889

C424 895 425 896 427 896

C430 896 435 894 437 891

L439 888

L439 892

C438 894 438 896 438 897

C437 897 432 897 425 898

C416 898 413 898 415 897

Z

M442 895

C443 894 446 887 449 879

L454 865

L461 879

C466 887 470 893 471 893

C474 893 467 895 463 895

C460 895 458 895 459 894

C461 894 461 894 459 890

C458 887 458 887 453 887

C448 888 447 889 447 892

C447 894 447 895 449 895

C451 895 451 895 449 896

C448 896 445 897 444 897

C441 897 441 897 442 895

Z

M455 885

L457 885

L455 881

C453 879 452 877 452 877

C451 877 449 884 449 885

C449 886 452 886 455 885

Z

M331 895

C324 894 320 893 325 893

C326 893 327 893 327 893

C327 893 328 887 328 880

C330 868 330 867 328 866

C326 864 326 864 330 865

C333 865 338 865 342 866

L350 867

L350 870

C350 872 350 874 349 874

C348 875 348 875 348 873

C348 871 345 868 341 868

C337 867 337 867 337 870

C336 875 336 879 337 879

C339 879 341 876 342 874

C343 872 343 876 342 883

L342 888

L340 885

C339 883 338 881 337 881

C335 881 335 882 335 887

C335 893 336 894 338 894

C342 894 346 892 348 889

L350 887

L349 890

C349 893 349 895 348 895

C348 896 340 896 331 895

Z

M304 892

C301 891 298 890 297 890

C297 889 297 889 298 889

C299 890 300 889 301 889

C302 887 303 877 302 877

C302 876 300 876 298 876

L294 876

L293 881

C292 887 292 887 294 889

C295 890 295 890 294 890

C293 889 290 889 287 888

C281 888 281 888 283 886

C284 885 285 881 286 875

C287 869 288 863 289 862

C289 861 289 860 287 859

C285 858 286 858 290 859

C296 859 302 861 299 861

C298 861 297 862 296 863

C295 865 294 873 295 873

C295 873 297 873 300 874

L304 875

L305 870

C306 864 305 862 303 862

C302 862 302 862 302 861

C303 861 306 861 310 862

C316 863 317 863 315 864

C313 865 313 865 310 879

C309 890 309 890 311 891

C313 893 313 893 304 892

Z

M480 888

C478 885 474 879 472 875

C470 871 467 867 466 867

C464 865 464 865 466 865

C469 864 479 863 477 864

C476 864 475 865 475 865

C475 867 484 882 485 882

C485 881 489 867 489 865

C489 864 488 863 487 863

C483 863 486 862 490 861

L495 860

L493 863

C492 864 490 871 488 878

C486 885 484 891 484 892

C483 893 482 892 480 888

Z

M505 886

C494 880 494 864 504 859

C509 856 517 856 521 859

C530 865 530 880 520 885

C515 888 510 888 505 886

Z

M517 884

C520 882 520 881 520 877

C520 870 517 863 514 860

C511 857 509 857 506 860

C505 862 504 864 504 868

C504 874 508 883 511 885

C514 886 514 886 517 884

Z

M263 884

C253 880 249 870 254 861

C259 853 269 851 278 856

C279 857 281 858 282 857

C284 857 284 857 283 861

C282 866 280 869 280 866

C280 862 277 858 273 856

C268 854 263 857 260 866

C258 875 260 881 267 883

C270 883 270 883 271 879

C272 875 272 874 270 873

C269 872 269 872 272 872

C274 873 277 874 279 874

C283 875 283 875 281 876

C280 876 279 877 278 881

L277 885

L272 885

C269 885 265 884 263 884

Z

M538 879

C535 878 533 875 530 864

C527 857 526 855 525 855

C523 855 525 854 529 852

C536 850 538 849 536 851

C534 853 534 853 537 864

C540 870 542 875 543 875

C548 877 552 875 552 869

C552 868 551 863 549 858

C547 851 546 849 544 849

C541 848 542 848 547 846

C550 845 555 843 559 841

C563 840 568 838 569 838

C576 838 579 846 575 850

C574 852 574 852 580 855

C583 857 587 859 588 859

C590 859 589 861 585 862

L581 864

L574 860

C570 858 567 856 566 856

C566 857 567 859 568 862

C570 865 571 866 573 866

C577 866 575 867 569 870

C561 873 560 874 562 871

C564 870 564 868 557 855

C552 845 553 846 551 847

C548 847 549 849 552 858

C556 871 554 877 546 879

C542 880 541 880 538 879

Z

M569 852

C571 850 571 849 570 845

C568 842 565 840 562 842

C559 843 559 844 562 849

C565 854 566 855 569 852

Z

M240 877

C233 875 231 873 235 873

C236 873 237 871 240 863

C245 850 245 847 242 847

C238 847 238 848 233 860

C229 871 229 871 231 873

C232 874 232 874 230 873

C225 872 217 868 220 868

C221 868 222 867 224 863

C225 860 226 858 226 857

C226 856 219 853 218 853

C217 853 216 856 215 859

C213 864 213 864 215 866

C217 868 215 867 209 865

C204 863 199 860 203 861

C206 862 206 861 211 848

C216 838 216 837 214 836

C213 835 213 834 214 834

C224 838 227 840 227 840

C227 841 226 841 225 840

C223 840 223 841 221 844

C220 847 219 849 219 850

C219 851 225 854 227 854

C227 854 229 852 230 849

C232 845 232 844 230 843

C228 841 229 841 235 843

C238 844 244 846 248 848

C253 849 256 850 256 851

C256 851 255 851 255 851

C252 850 252 851 248 864

C244 875 244 875 246 877

C247 878 247 879 247 879

C247 879 243 878 240 877

Z

M387 816

C380 808 365 795 358 790

C339 778 301 765 250 754

C188 741 154 713 141 667

C135 648 136 661 135 433

L135 222

L132 217

C131 215 128 211 127 208

C123 204 122 201 124 199

C125 197 143 197 394 197

C646 197 663 197 664 199

C666 202 665 205 660 211

C653 219 654 199 653 434

C652 627 652 646 651 654

C645 680 636 699 620 716

C602 733 576 746 540 754

C495 764 465 773 447 781

C432 788 417 800 400 817

C395 821 392 821 387 816

Z

M486 694

C486 691 483 688 481 688

C479 689 479 693 482 697

C484 699 485 700 485 698

C486 697 486 695 486 694

Z

M462 684

C462 682 459 679 458 680

C456 680 454 685 454 689

L454 693

L458 689

C460 687 462 685 462 684

Z

M524 675

C524 671 523 669 520 671

C518 671 518 672 518 676

C519 678 519 681 520 681

C521 683 523 679 524 675

Z

M454 665

C455 664 454 660 452 660

C451 659 443 663 442 665

C442 666 452 666 454 665

Z

M300 627

C299 624 296 623 296 626

C296 629 298 632 299 631

C300 631 300 629 300 627

Z

M277 616

C280 613 281 610 278 609

C276 609 273 613 273 616

C273 619 274 618 277 616

Z

M275 587

C277 583 274 582 268 585

C264 588 265 589 270 589

C274 589 275 589 275 587

Z

M298 567

C299 565 296 561 294 560

C291 560 291 560 292 564

C293 568 296 569 298 567

Z

M252 504

C252 502 249 500 248 502

C248 502 247 505 247 508

L246 514

L249 510

C251 508 252 506 252 504

Z

M229 505

C232 502 231 499 228 499

C226 499 224 500 222 503

C221 506 219 508 220 508

C221 509 227 507 229 505

Z

M209 485

C210 484 211 483 211 482

C210 477 204 479 201 484

C200 486 200 486 203 486

C205 486 207 486 209 485

Z

M216 455

C219 452 215 449 209 449

C204 449 204 449 205 451

C206 453 211 456 214 456

C214 456 215 455 216 455

Z

M247 366

C247 365 246 365 245 364

C244 364 239 368 238 370

C237 372 237 372 242 370

C245 369 247 368 247 366

Z

M247 344

C247 343 247 341 246 340

C245 339 244 339 242 340

C241 341 239 343 238 344

L236 346

L241 346

C245 346 247 345 247 344

Z

M455 320

C457 318 459 316 459 316

C459 315 461 313 463 311

C467 308 467 307 465 305

C464 303 463 303 460 304

C457 305 456 305 454 303

C452 301 452 300 453 297

C454 293 454 293 452 291

C450 289 449 289 447 291

C444 293 443 293 439 292

C437 291 437 290 437 286

C438 281 438 281 434 280

C431 279 431 279 429 281

C427 284 425 285 422 283

C419 282 419 281 419 277

C419 275 419 273 418 273

C418 273 417 273 415 272

C414 272 413 272 413 276

C412 278 411 280 410 281

C410 282 409 285 408 288

L408 293

L413 294

C425 299 438 308 446 319

C449 324 449 324 455 320

Z

M257 322

C260 319 257 315 250 315

C246 315 246 316 250 320

C253 323 255 324 257 322

Z

M275 311

C276 308 274 306 269 306

C267 306 265 306 265 307

C265 307 266 308 267 310

C270 313 273 314 275 311

Z

M448 315

C446 314 445 311 447 311

C448 311 452 315 452 316

C452 317 451 317 448 315

Z

M438 305

C437 304 436 303 436 303

C436 302 439 302 441 303

C443 306 441 307 438 305

Z

M426 296

C425 296 425 295 425 294

C426 293 431 296 431 297

C431 299 427 298 426 296

Z

M416 292

C413 290 412 288 414 288

C416 288 421 292 419 292

C419 293 417 292 416 292

Z

"/>

<path fill="#008f2b" stroke="none" d="
M367 967

C310 963 256 951 205 932

C188 925 184 923 184 921

C183 920 183 914 183 909

C183 899 182 899 180 897

C179 896 175 895 172 895

C169 894 166 893 165 893

C160 890 150 883 138 874

C131 868 123 862 121 860

C111 854 98 848 91 848

L87 848

L91 844

C98 838 112 828 120 824

C129 820 138 818 150 818

L158 818

L157 814

C157 806 151 791 140 768

C133 755 128 745 128 744

C128 744 131 744 134 744

C150 746 168 753 179 761

C189 769 204 783 209 789

C213 795 213 795 213 804

C213 810 213 812 214 813

C216 814 244 824 258 827

C300 839 341 846 380 849

C387 849 390 849 390 848

C389 846 373 829 365 823

C344 805 326 795 301 788

C295 787 279 783 265 780

C226 771 212 766 194 757

C176 749 152 731 143 720

C127 701 118 674 115 639

C115 633 114 540 114 431

C114 316 114 232 113 229

C111 217 105 207 95 199

C92 196 87 192 85 190

C81 186 80 185 80 182

C80 180 81 178 83 177

L86 175

L394 175

L702 175

L705 177

C707 178 708 180 708 182

C708 185 707 186 701 191

C688 204 682 209 680 215

C674 228 674 216 674 433

C674 543 673 636 673 641

C669 678 659 705 642 723

C637 729 620 742 609 749

C590 761 566 770 530 778

C499 785 489 787 477 792

C457 798 441 808 423 823

C414 830 398 847 398 848

C398 849 403 849 409 849

C457 846 506 837 563 820

C580 815 580 815 580 812

C577 796 577 795 578 793

C580 789 609 762 618 757

C631 748 647 743 659 743

L666 744

L656 759

C650 767 644 776 642 779

C640 782 637 788 636 792

C633 800 631 814 633 816

C633 816 637 817 641 818

C658 819 676 826 697 839

C704 844 706 846 704 846

C703 846 697 847 691 849

C676 853 668 857 656 867

C651 871 638 880 628 887

C617 894 608 901 608 902

C608 903 608 906 608 910

C609 918 608 920 599 923

C595 925 586 928 579 932

C541 948 491 961 445 966

C428 967 385 968 367 967

Z

M422 961

C470 957 524 946 574 928

C588 922 600 917 601 915

C602 914 602 809 602 808

C601 808 598 809 595 811

C584 817 547 829 516 837

C469 849 433 854 392 853

C330 853 288 845 217 819

C206 815 195 812 193 811

L189 811

L189 841

C191 911 191 918 192 920

C193 920 199 923 206 926

C253 945 306 957 356 961

C371 962 406 962 422 961

Z

M179 888

C181 887 181 882 181 845

L181 803

L184 800

C185 798 189 796 194 795

C198 794 202 793 202 792

C203 792 193 782 185 774

C175 765 165 759 154 755

C146 752 138 750 138 751

C138 752 139 754 141 756

C152 773 162 800 165 823

C166 825 165 826 164 827

C163 827 155 828 146 828

C137 828 127 828 124 829

C116 831 109 834 105 839

L102 842

L108 844

C120 847 130 854 152 873

C166 885 173 890 177 890

C177 890 179 889 179 888

Z

M623 883

C628 880 636 874 641 870

C658 854 672 845 683 844

C687 844 690 843 691 843

C691 842 682 836 675 832

C664 828 657 826 641 825

C627 825 627 825 626 822

C623 814 629 788 638 773

C640 769 644 762 647 758

C650 754 652 750 652 750

C650 750 634 755 627 758

C618 763 613 767 599 780

C587 792 587 792 590 793

C599 795 607 797 608 799

C609 800 610 806 610 843

C610 866 610 886 610 887

C611 890 613 889 623 883

Z

M429 807

C455 788 471 782 521 771

C560 762 575 758 592 749

C600 745 615 735 626 726

C645 711 656 690 662 658

C664 647 664 644 665 522

C665 234 665 229 667 223

C672 209 679 199 691 190

L698 184

L546 183

C462 183 326 183 242 183

L90 184

L98 189

C109 199 116 208 121 222

C122 227 123 237 123 436

C124 664 123 650 129 672

C137 701 146 714 170 732

C195 751 214 759 251 767

C260 769 274 773 283 775

C327 785 353 798 381 826

L394 839

L407 826

C414 819 424 811 429 807

Z

M599 804

C599 802 594 800 589 800

C584 800 583 800 585 806

L586 811

L592 808

C596 807 599 805 599 804

Z

M205 805

C205 802 205 801 203 801

C201 801 193 804 193 805

C193 806 201 809 204 809

C205 809 205 808 205 805

Z

M545 166

C520 162 478 157 444 154

C436 153 427 153 424 152

C413 152 356 152 341 153

C319 155 290 158 264 161

C251 163 239 164 236 164

L232 165

L230 157

C229 153 225 137 222 121

C215 92 214 87 216 86

C217 86 224 83 233 81

C250 77 250 77 252 85

C256 100 256 100 258 100

C260 99 263 99 266 98

L272 97

L273 84

C273 75 274 71 275 70

C275 69 287 68 300 66

C313 65 325 64 326 64

C328 63 330 63 331 64

C333 65 336 71 337 80

L339 88

L347 87

C359 87 359 87 359 75

C359 60 357 61 386 60

C417 59 418 59 420 63

C421 64 422 70 422 75

C422 80 423 84 423 84

C423 85 427 85 432 85

C437 86 440 85 441 85

C441 84 442 80 443 76

C443 67 445 65 451 65

C453 66 463 67 474 68

C498 69 501 70 502 72

C503 73 504 78 504 85

C504 91 504 97 504 97

C505 97 528 101 530 101

C530 101 531 98 532 94

C534 83 535 80 537 80

C540 79 554 84 564 88

C570 91 571 92 571 95

C571 99 555 165 553 166

C551 167 551 167 545 166

Z

M549 155

C549 152 550 148 550 146

C550 141 549 141 539 139

L533 139

L532 144

C531 147 530 151 530 153

C530 156 531 156 536 158

C538 159 542 160 544 160

C547 160 548 159 549 155

Z

M253 157

C258 156 262 155 263 155

C264 153 262 140 260 139

C258 137 238 142 235 144

C234 145 234 148 237 155

C239 160 239 160 253 157

Z

M525 154

C526 153 528 147 528 141

C528 138 528 137 526 137

C525 136 514 134 502 132

C479 127 460 124 447 124

L440 124

L439 134

L439 145

L443 145

C446 146 461 148 477 150

C493 151 509 153 511 154

C517 155 523 155 525 154

Z

M290 151

C300 150 316 149 328 148

C339 147 348 146 349 146

C350 145 351 124 350 123

C349 123 325 124 309 127

C295 128 268 134 266 135

C265 136 265 145 266 150

C266 154 267 154 290 151

Z

M434 142

C434 141 435 136 435 131

L435 123

L420 122

C408 121 357 122 356 122

C356 122 356 128 357 134

L357 145

L396 145

L434 145

L434 142

Z

M260 132

C272 129 288 125 296 123

C303 122 310 120 310 120

C311 119 310 108 308 101

L308 99

L296 101

C274 105 255 109 237 115

C228 117 228 117 231 129

C234 138 234 138 236 138

C237 137 247 135 260 132

Z

M553 133

C554 130 554 126 554 123

L555 117

L535 111

C521 108 510 105 496 103

C485 101 475 100 475 100

C475 101 474 121 474 121

C475 121 541 135 546 136

C550 137 551 137 553 133

Z

M356 117

C372 116 386 115 387 115

C389 115 389 114 389 105

L389 95

L366 95

C354 96 342 96 341 96

C339 97 334 97 330 97

C326 98 321 98 318 99

C314 99 314 99 314 103

C314 105 314 110 315 113

L315 120

L321 120

C325 119 341 118 356 117

Z

M469 109

C470 103 470 100 469 99

C467 97 440 95 418 95

C406 95 397 95 396 95

C396 96 396 100 396 105

L396 115

L407 115

C413 115 425 116 433 116

C440 117 450 117 455 118

C468 119 468 119 469 109

Z

M562 105

C564 98 564 97 563 96

C561 94 545 88 543 88

C541 88 538 104 539 106

C541 107 557 113 559 113

C560 113 561 110 562 105

Z

M238 109

C244 107 249 106 249 105

C250 105 244 87 243 86

C242 84 223 90 222 92

C220 93 226 112 228 112

C228 112 233 111 238 109

Z

M306 94

C317 92 327 90 328 90

C329 89 329 87 327 80

C327 75 326 71 325 71

C324 70 284 74 282 75

C281 76 281 96 282 97

C282 98 283 98 284 97

C286 97 295 96 306 94

Z

M495 86

C495 76 495 76 493 76

C488 75 463 72 458 72

L452 72

L452 78

C451 86 451 91 452 91

C452 91 460 92 470 94

C480 96 489 97 491 97

L495 97

L495 86

Z

M413 87

C415 86 413 70 412 69

C410 68 397 68 380 69

L367 69

L367 78

C366 83 366 88 367 88

C367 89 412 88 413 87

Z

M387 946

C387 946 388 945 389 944

C390 943 393 936 396 929

C399 922 402 916 402 916

C402 916 405 922 409 930

C412 938 415 944 416 945

C419 946 416 946 410 946

C406 946 404 945 405 945

C406 944 406 943 405 941

C405 939 404 938 399 938

C395 938 394 938 393 941

C392 944 392 944 394 945

C396 946 396 946 392 946

C389 946 387 946 387 946

Z

M403 934

C402 933 401 931 401 930

C400 926 399 927 397 932

L395 936

L399 936

C403 936 403 936 403 934

Z

M369 944

C371 943 371 941 371 930

L372 918

L369 918

C367 918 365 919 364 921

L362 925

L362 920

L363 916

L374 916

C381 916 387 916 387 917

C388 917 388 919 388 921

L388 926

L387 922

C385 919 381 917 379 918

C379 919 378 925 378 931

C378 944 378 944 380 945

C382 946 381 946 375 946

C367 946 367 946 369 944

Z

M422 944

C420 942 420 941 419 930

C418 921 418 918 416 917

C415 916 416 916 422 916

C426 916 429 916 428 917

C426 918 425 918 426 929

C427 938 427 940 429 942

C430 944 432 944 433 944

C438 942 439 941 439 930

C439 919 438 917 435 916

C434 916 441 915 449 914

C465 913 465 913 468 915

C472 918 472 924 469 927

L466 929

L471 934

C476 940 478 941 480 939

C480 938 482 931 484 923

L488 908

L496 920

C501 927 505 934 506 934

C508 936 507 936 502 937

C494 938 493 938 495 937

C497 935 497 935 495 933

C494 930 493 930 489 931

C484 931 483 932 483 936

C483 937 484 938 485 939

C487 940 486 940 480 941

C475 941 471 942 470 942

C469 942 466 939 464 936

C461 933 458 930 458 930

C457 930 457 938 458 940

C459 941 460 942 461 942

C464 942 461 943 454 944

C447 945 447 945 449 943

C451 942 451 941 449 930

C449 923 448 917 447 917

C447 916 445 916 444 916

C442 916 441 917 441 928

C441 934 440 940 440 942

C437 946 427 948 422 944

Z

M491 928

C492 927 492 927 490 924

C489 922 487 920 487 920

C487 920 486 922 485 925

C484 929 484 929 487 929

C488 929 490 929 491 928

Z

M462 926

C466 923 464 915 458 915

C455 915 455 916 456 923

C456 928 458 929 462 926

Z

M347 944

C346 943 346 943 347 943

C349 943 349 943 349 940

C348 936 347 936 342 935

C339 935 337 935 336 937

C334 939 335 942 337 942

C338 943 336 943 334 943

L329 943

L331 941

C332 940 336 933 340 927

C343 920 347 914 347 914

C347 914 350 920 352 927

C354 935 357 942 358 943

C359 945 359 945 354 945

C351 945 348 945 347 944

Z

M345 931

C344 923 343 923 341 928

C339 933 339 934 344 934

C346 934 346 934 345 931

Z

M320 942

C314 941 313 940 315 940

C317 939 318 937 319 928

C320 922 321 916 321 916

C320 916 317 921 313 927

C310 934 306 939 306 939

C306 939 304 933 303 927

C301 920 299 914 299 914

C299 913 298 918 297 924

C295 934 295 935 297 936

L299 938

L297 938

C296 938 293 937 292 937

C289 936 289 936 291 936

C293 935 293 935 295 921

C297 909 297 909 295 908

C293 907 294 907 298 908

C306 909 305 908 308 919

C310 930 310 931 317 918

L321 911

L325 912

C327 912 330 913 331 913

C333 914 333 914 331 914

C329 914 328 915 326 928

C325 940 325 940 327 941

C329 943 329 943 320 942

Z

M510 934

C511 933 512 931 512 930

C511 929 510 924 509 920

C507 910 505 907 502 907

C501 907 503 906 506 905

L511 904

L520 911

C525 914 529 917 529 916

C529 916 528 913 527 909

C526 905 525 903 523 902

L521 901

L524 901

C525 900 527 900 528 899

C530 899 530 899 529 901

C528 903 528 905 531 916

C533 923 534 929 534 930

C534 930 528 926 522 921

C515 916 510 912 509 912

C509 913 510 917 513 927

C514 931 514 932 517 932

C520 932 518 934 513 935

C509 935 509 935 510 934

Z

M260 930

C248 926 238 923 237 922

C237 922 237 922 238 921

C239 920 239 919 238 914

C236 911 235 908 235 907

C234 907 231 914 231 917

C231 918 232 919 232 920

C234 921 233 921 226 919

C220 916 218 915 221 915

C223 915 224 914 228 904

C232 892 232 891 230 890

C229 888 229 888 230 888

C231 888 234 890 237 891

C241 892 242 892 240 893

C239 894 238 895 237 898

C236 900 236 903 235 904

C235 904 237 904 242 902

C251 899 252 898 249 896

C247 894 245 894 266 900

C275 902 281 904 282 904

C282 904 281 907 281 909

C280 912 279 913 279 911

C279 908 275 904 271 903

C268 903 268 903 267 908

C266 915 267 916 271 912

C275 908 274 908 272 916

C270 924 269 926 269 921

C269 919 267 915 266 916

C265 917 263 924 263 926

C263 930 271 931 276 926

L279 924

L278 926

C276 931 275 933 274 933

C273 933 267 931 260 930

Z

M256 921

C262 903 262 899 258 899

C256 899 242 904 242 905

C242 907 248 923 249 925

C250 925 251 926 253 926

C255 926 255 925 256 921

Z

M542 922

C539 920 537 919 536 915

C533 910 534 903 537 899

C540 895 546 892 551 892

C554 892 555 892 555 890

C556 889 557 890 558 893

C559 896 560 898 560 899

C559 899 558 898 556 897

C554 895 552 894 550 894

C547 894 542 896 542 899

C540 904 542 914 547 918

C550 921 554 922 557 920

C559 918 559 918 558 915

C557 913 556 911 555 910

C553 909 554 909 559 907

C566 905 567 905 565 907

C564 908 564 909 565 912

C566 917 566 918 558 922

C551 925 548 925 542 922

Z

M570 916

C570 916 570 915 571 914

C572 914 572 909 571 898

C571 889 570 882 570 882

C571 882 576 887 583 892

C589 897 595 902 596 902

C598 902 596 904 591 906

C587 908 585 909 586 908

C587 906 587 906 585 903

L582 901

L578 903

C574 906 573 906 574 909

C574 911 575 911 577 911

C580 911 579 912 575 915

C572 916 570 917 570 916

Z

M577 901

L580 900

L577 897

C576 895 574 894 574 894

C573 894 573 896 573 899

C573 901 573 903 574 903

C574 903 575 902 577 901

Z

M204 909

C198 907 193 904 193 904

C193 904 194 903 195 903

C197 903 198 902 203 892

C208 880 208 880 207 878

C205 878 205 877 205 877

C206 877 227 887 227 887

C227 888 226 889 225 892

L224 896

L223 892

C223 889 222 887 220 886

C218 885 216 884 215 884

C214 884 210 893 211 894

C212 896 214 895 216 893

C217 891 219 890 219 890

C219 891 217 894 216 898

C212 905 212 905 212 902

C212 900 211 898 211 897

C209 896 209 896 208 899

C204 906 204 907 207 908

C211 911 214 910 217 908

C221 905 221 906 218 911

L216 915

L204 909

Z

M367 886

L359 874

L358 884

C357 893 357 894 359 895

C361 897 361 897 356 897

C352 897 351 897 353 896

C356 895 356 893 356 882

C356 868 356 869 354 868

C352 867 353 867 357 867

L363 867

L369 876

C376 886 377 886 377 876

C377 872 377 871 375 869

C373 868 373 868 387 868

C403 869 407 870 409 875

C412 880 411 888 409 892

C406 897 402 898 391 898

C384 898 382 898 384 897

C386 896 386 896 386 883

C386 870 385 869 384 869

C379 869 379 870 378 884

C378 892 377 898 377 898

C377 899 372 893 367 886

Z

M400 894

C403 892 404 884 403 879

C402 874 398 870 395 870

C393 870 393 871 393 883

C393 896 393 897 397 896

C398 896 400 895 400 894

Z

M415 897

C417 896 417 896 417 887

C416 882 416 876 416 874

C416 871 416 870 414 869

C412 868 413 868 419 868

C422 868 428 868 431 867

L436 867

L436 872

C436 876 436 876 435 874

C433 871 429 869 426 869

C424 869 423 870 423 874

C423 877 423 880 423 881

C424 883 428 880 429 877

L430 874

L430 877

C430 878 430 882 431 885

C431 890 431 890 430 888

C429 886 427 885 426 884

C424 883 424 883 424 889

C424 895 425 896 427 896

C430 896 435 894 437 891

L439 888

L439 892

C438 894 438 896 438 897

C437 897 432 897 425 898

C416 898 413 898 415 897

Z

M442 895

C443 894 446 887 449 879

L454 865

L461 879

C466 887 470 893 471 893

C474 893 467 895 463 895

C460 895 458 895 459 894

C461 894 461 894 459 890

C458 887 458 887 453 887

C448 888 447 889 447 892

C447 894 447 895 449 895

C451 895 451 895 449 896

C448 896 445 897 444 897

C441 897 441 897 442 895

Z

M455 885

L457 885

L455 881

C453 879 452 877 452 877

C451 877 449 884 449 885

C449 886 452 886 455 885

Z

M331 895

C324 894 320 893 325 893

C326 893 327 893 327 893

C327 893 328 887 328 880

C330 868 330 867 328 866

C326 864 326 864 330 865

C333 865 338 865 342 866

L350 867

L350 870

C350 872 350 874 349 874

C348 875 348 875 348 873

C348 871 345 868 341 868

C337 867 337 867 337 870

C336 875 336 879 337 879

C339 879 341 876 342 874

C343 872 343 876 342 883

L342 888

L340 885

C339 883 338 881 337 881

C335 881 335 882 335 887

C335 893 336 894 338 894

C342 894 346 892 348 889

L350 887

L349 890

C349 893 349 895 348 895

C348 896 340 896 331 895

Z

M304 892

C301 891 298 890 297 890

C297 889 297 889 298 889

C299 890 300 889 301 889

C302 887 303 877 302 877

C302 876 300 876 298 876

L294 876

L293 881

C292 887 292 887 294 889

C295 890 295 890 294 890

C293 889 290 889 287 888

C281 888 281 888 283 886

C284 885 285 881 286 875

C287 869 288 863 289 862

C289 861 289 860 287 859

C285 858 286 858 290 859

C296 859 302 861 299 861

C298 861 297 862 296 863

C295 865 294 873 295 873

C295 873 297 873 300 874

L304 875

L305 870

C306 864 305 862 303 862

C302 862 302 862 302 861

C303 861 306 861 310 862

C316 863 317 863 315 864

C313 865 313 865 310 879

C309 890 309 890 311 891

C313 893 313 893 304 892

Z

M480 888

C478 885 474 879 472 875

C470 871 467 867 466 867

C464 865 464 865 466 865

C469 864 479 863 477 864

C476 864 475 865 475 865

C475 867 484 882 485 882

C485 881 489 867 489 865

C489 864 488 863 487 863

C483 863 486 862 490 861

L495 860

L493 863

C492 864 490 871 488 878

C486 885 484 891 484 892

C483 893 482 892 480 888

Z

M505 886

C494 880 494 864 504 859

C509 856 517 856 521 859

C530 865 530 880 520 885

C515 888 510 888 505 886

Z

M517 884

C520 882 520 881 520 877

C520 870 517 863 514 860

C511 857 509 857 506 860

C505 862 504 864 504 868

C504 874 508 883 511 885

C514 886 514 886 517 884

Z

M263 884

C253 880 249 870 254 861

C259 853 269 851 278 856

C279 857 281 858 282 857

C284 857 284 857 283 861

C282 866 280 869 280 866

C280 862 277 858 273 856

C268 854 263 857 260 866

C258 875 260 881 267 883

C270 883 270 883 271 879

C272 875 272 874 270 873

C269 872 269 872 272 872

C274 873 277 874 279 874

C283 875 283 875 281 876

C280 876 279 877 278 881

L277 885

L272 885

C269 885 265 884 263 884

Z

M538 879

C535 878 533 875 530 864

C527 857 526 855 525 855

C523 855 525 854 529 852

C536 850 538 849 536 851

C534 853 534 853 537 864

C540 870 542 875 543 875

C548 877 552 875 552 869

C552 868 551 863 549 858

C547 851 546 849 544 849

C541 848 542 848 547 846

C550 845 555 843 559 841

C563 840 568 838 569 838

C576 838 579 846 575 850

C574 852 574 852 580 855

C583 857 587 859 588 859

C590 859 589 861 585 862

L581 864

L574 860

C570 858 567 856 566 856

C566 857 567 859 568 862

C570 865 571 866 573 866

C577 866 575 867 569 870

C561 873 560 874 562 871

C564 870 564 868 557 855

C552 845 553 846 551 847

C548 847 549 849 552 858

C556 871 554 877 546 879

C542 880 541 880 538 879

Z

M569 852

C571 850 571 849 570 845

C568 842 565 840 562 842

C559 843 559 844 562 849

C565 854 566 855 569 852

Z

M240 877

C233 875 231 873 235 873

C236 873 237 871 240 863

C245 850 245 847 242 847

C238 847 238 848 233 860

C229 871 229 871 231 873

C232 874 232 874 230 873

C225 872 217 868 220 868

C221 868 222 867 224 863

C225 860 226 858 226 857

C226 856 219 853 218 853

C217 853 216 856 215 859

C213 864 213 864 215 866

C217 868 215 867 209 865

C204 863 199 860 203 861

C206 862 206 861 211 848

C216 838 216 837 214 836

C213 835 213 834 214 834

C224 838 227 840 227 840

C227 841 226 841 225 840

C223 840 223 841 221 844

C220 847 219 849 219 850

C219 851 225 854 227 854

C227 854 229 852 230 849

C232 845 232 844 230 843

C228 841 229 841 235 843

C238 844 244 846 248 848

C253 849 256 850 256 851

C256 851 255 851 255 851

C252 850 252 851 248 864

C244 875 244 875 246 877

C247 878 247 879 247 879

C247 879 243 878 240 877

Z

M387 816

C380 808 365 795 358 790

C339 778 301 765 250 754

C188 741 154 713 141 667

C135 648 136 661 135 433

L135 222

L132 217

C131 215 128 211 127 208

C123 204 122 201 124 199

C125 197 143 197 394 197

C646 197 663 197 664 199

C666 202 665 205 660 211

C653 219 654 199 653 434

C652 627 652 646 651 654

C645 680 636 699 620 716

C602 733 576 746 540 754

C495 764 465 773 447 781

C432 788 417 800 400 817

C395 821 392 821 387 816

Z

M404 803

C417 791 426 784 437 779

C456 769 488 758 520 751

C529 750 541 747 548 745

C608 729 638 698 645 645

C646 638 646 574 646 434

C646 311 646 229 647 224

C648 217 651 209 654 206

C655 205 656 204 656 204

C656 203 538 203 394 203

C250 203 132 203 132 204

C132 204 133 206 135 208

C137 210 139 214 140 216

C141 220 142 232 142 433

L143 646

L145 655

C151 682 162 701 179 715

C199 733 221 741 273 753

C289 756 313 763 327 768

C352 777 366 786 384 803

C389 808 394 812 394 812

C394 812 399 808 404 803

Z

M381 779

C358 762 338 754 282 740

C241 729 225 724 207 715

C195 709 193 708 184 700

C177 692 175 689 170 680

C165 669 163 663 160 649

C159 641 159 616 158 431

C158 222 158 222 160 220

C162 218 162 218 394 218

C619 218 627 218 628 220

C630 222 630 236 630 432

C629 623 629 643 628 650

C624 667 620 678 614 688

C598 711 575 722 505 740

C469 749 454 754 438 761

C427 766 408 778 400 785

C397 787 395 789 394 789

C394 789 388 785 381 779

Z

M486 694

C486 691 483 688 481 688

C479 689 479 693 482 697

C484 699 485 700 485 698

C486 697 486 695 486 694

Z

M462 684

C462 682 459 679 458 680

C456 680 454 685 454 689

L454 693

L458 689

C460 687 462 685 462 684

Z

M488 684

C491 677 492 675 496 670

C499 667 501 665 502 665

C503 665 506 667 509 669

C513 670 516 672 517 672

C517 671 518 673 519 676

C519 679 520 681 520 681

C522 682 523 679 523 675

C523 671 523 671 521 671

L519 671

L521 669

C524 665 524 664 519 659

C516 657 514 654 514 654

C514 653 513 652 512 651

C511 649 511 649 514 648

C517 647 523 642 523 641

C523 640 522 640 520 640

C518 640 517 640 517 639

C517 638 517 638 518 638

C520 638 525 632 525 630

C525 628 524 628 522 628

C521 628 518 627 516 626

L513 624

L516 622

C520 620 526 612 526 609

C526 608 525 608 522 608

C519 608 513 606 510 603

C507 601 508 600 510 600

C512 600 518 596 520 592

C521 589 521 589 518 590

C517 591 514 591 512 591

C504 591 500 584 496 562

C495 556 494 551 494 550

C493 549 494 548 498 547

C520 543 533 526 533 502

C533 486 529 477 513 455

C492 428 481 403 481 386

C481 374 487 359 496 350

C515 331 544 336 556 360

C560 369 561 374 560 385

C560 391 560 396 561 398

C562 401 562 401 560 401

C553 401 549 407 548 417

C548 422 548 424 549 424

C551 424 555 418 556 414

C558 407 559 407 558 414

C558 417 557 420 556 422

C554 423 552 429 553 429

C554 429 555 428 557 426

C558 424 560 423 561 423

C561 423 561 424 559 425

C557 428 556 431 559 437

L561 441

L565 437

C570 433 571 430 571 425

C571 422 572 421 574 420

C579 417 580 415 577 398

C575 381 570 364 564 355

C559 347 551 340 542 336

C535 333 534 333 522 333

C512 333 509 333 504 335

C483 343 469 365 469 390

C469 407 473 416 490 444

C509 475 514 487 514 504

C515 515 513 521 507 525

C502 529 494 532 489 532

L485 532

L481 524

C476 514 468 506 452 493

C439 482 429 472 425 464

C422 458 421 458 421 461

C421 463 420 462 417 456

C413 448 410 440 410 433

C410 431 410 429 409 429

C409 429 406 435 404 442

L400 454

L399 445

C398 440 397 436 397 436

C397 436 395 439 393 443

C389 450 384 459 383 459

C383 458 383 456 384 453

C385 450 385 444 386 441

C387 437 387 432 388 431

C389 425 386 428 384 435

C383 439 380 446 378 450

L375 457

L374 446

L374 436

L370 441

C368 444 366 448 364 449

L362 452

L362 447

C361 445 361 441 362 439

C362 437 362 435 361 435

C361 435 359 438 357 441

C355 444 353 447 353 446

C352 445 352 433 353 429

C353 426 354 424 354 424

C353 424 344 432 341 436

L338 439

L339 431

C340 411 340 411 343 404

C345 399 346 398 345 396

C345 394 344 392 345 390

C345 386 345 386 343 387

C337 389 327 396 320 404

C313 411 310 416 296 437

C286 452 280 458 263 467

C253 472 252 473 250 471

C249 470 245 466 240 462

C229 452 219 449 217 455

C217 457 218 458 221 462

C226 467 226 470 221 471

C212 473 212 474 211 477

C211 481 213 483 220 483

L225 484

L225 489

C226 495 227 497 232 498

C236 498 236 498 239 495

C240 493 242 492 242 492

C243 492 243 494 244 496

C245 499 245 499 250 499

C254 499 255 498 258 493

C261 489 262 488 262 490

C263 491 264 490 270 484

C274 480 277 477 277 477

C278 477 278 478 279 480

C280 482 281 483 282 483

C282 483 287 478 293 473

L303 464

L303 467

L303 470

L311 462

L320 454

L321 458

L321 461

L326 456

C331 451 332 450 333 451

C335 454 336 453 339 451

L341 449

L340 452

C335 461 340 475 352 488

C361 496 366 499 385 505

C401 511 406 514 411 520

C419 529 419 530 420 555

C421 578 421 579 427 586

C430 590 439 595 446 597

C449 598 457 599 464 600

C473 600 476 601 480 603

C488 607 492 619 492 636

C492 650 490 652 475 653

C469 654 463 654 461 655

C457 655 455 659 455 663

C456 665 457 666 462 666

L466 667

L463 670

C458 674 458 677 462 680

C465 684 468 684 472 680

C475 678 477 677 477 677

C478 677 478 679 478 681

C478 684 478 686 479 686

C479 687 481 687 483 687

C486 687 487 687 488 684

Z

M454 665

C455 664 454 660 452 660

C451 659 443 663 442 665

C442 666 452 666 454 665

Z

M300 627

C299 624 296 623 296 626

C296 629 298 632 299 631

C300 631 300 629 300 627

Z

M366 627

C364 624 365 624 369 626

C373 628 384 629 383 627

C382 626 383 624 386 622

C391 617 391 611 388 599

C384 589 384 587 387 582

C391 575 403 567 411 567

C414 567 414 567 415 560

C415 551 414 537 411 532

C409 526 401 519 394 515

C387 511 385 511 375 514

C361 518 352 533 352 551

C352 560 352 560 358 572

C363 583 364 585 364 590

C364 595 364 596 362 598

C358 601 352 601 333 598

C314 595 309 594 306 591

C304 589 304 589 304 581

C304 572 303 568 300 568

C298 568 297 569 296 570

C294 572 294 573 294 578

C295 582 295 585 295 585

C294 585 292 584 289 582

C282 579 278 580 277 584

C276 588 279 591 284 594

C286 595 288 597 288 597

C288 597 286 599 284 600

C279 604 279 607 282 611

L285 613

L289 612

C295 610 296 610 294 613

C291 619 296 625 302 622

C303 622 304 619 305 616

C306 614 307 612 307 611

C309 611 318 614 326 619

C334 625 337 625 335 622

C333 618 335 618 342 623

C350 628 352 629 350 626

C350 625 350 624 349 623

C349 621 349 621 352 623

C355 625 364 629 366 629

C367 629 367 629 366 627

Z

M277 616

C280 613 281 610 278 609

C276 609 273 613 273 616

C273 619 274 618 277 616

Z

M275 587

C277 583 274 582 268 585

C264 588 265 589 270 589

C274 589 275 589 275 587

Z

M298 567

C299 565 296 561 294 560

C291 560 291 560 292 564

C293 568 296 569 298 567

Z

M252 504

C252 502 249 500 248 502

C248 502 247 505 247 508

L246 514

L249 510

C251 508 252 506 252 504

Z

M229 505

C232 502 231 499 228 499

C226 499 224 500 222 503

C221 506 219 508 220 508

C221 509 227 507 229 505

Z

M209 485

C210 484 211 483 211 482

C210 477 204 479 201 484

C200 486 200 486 203 486

C205 486 207 486 209 485

Z

M563 457

C562 456 562 453 562 452

C562 448 561 444 559 444

C559 444 558 446 558 448

C557 452 558 456 562 460

C564 462 565 460 563 457

Z

M216 455

C219 452 215 449 209 449

C204 449 204 449 205 451

C206 453 211 456 214 456

C214 456 215 455 216 455

Z

M419 444

C419 435 420 431 428 413

C437 395 440 385 441 375

C441 369 441 367 438 358

C436 352 434 347 434 347

C434 346 435 346 437 346

C440 346 444 343 447 337

C448 333 447 331 443 331

C439 331 439 330 442 328

L444 326

L442 323

C436 313 421 301 410 297

C404 296 402 296 398 300

L395 304

L398 309

C401 315 402 319 401 319

C400 319 398 318 396 317

C393 316 392 315 393 313

C393 311 393 311 387 313

C382 314 377 314 369 311

C364 310 363 310 361 314

C360 316 360 318 362 324

C363 328 364 334 365 338

C365 346 367 347 369 341

L371 337

L379 337

C389 337 390 337 392 346

C395 354 395 356 394 358

C393 359 387 361 379 363

C369 366 365 367 365 369

C365 369 365 371 366 371

C367 373 387 367 395 363

L402 359

L397 363

C391 369 381 375 371 377

C358 379 352 383 350 390

L350 393

L355 389

L360 386

L355 392

C349 398 344 409 346 411

C346 412 348 409 351 406

C356 400 363 394 361 396

C361 397 359 400 356 403

C354 406 351 411 349 415

C344 424 345 425 352 418

C355 416 357 414 357 415

C356 418 355 435 356 435

C356 435 359 431 362 426

C366 420 368 416 369 416

C369 416 368 418 367 420

C366 424 364 440 366 440

C367 440 376 426 377 420

L379 417

L379 422

C378 431 379 440 380 439

C383 436 388 420 390 405

C391 401 391 398 392 398

C392 399 390 430 389 437

C388 446 390 444 395 432

C400 421 400 421 401 424

C401 426 401 430 401 432

C400 433 401 435 401 435

C401 435 404 431 408 425

C413 416 421 404 423 402

C424 401 422 404 420 408

C416 417 414 424 414 431

C414 438 417 450 418 450

C419 450 419 447 419 444

Z

M557 446

C556 445 555 442 555 438

C554 429 552 428 551 437

C551 441 551 442 553 445

C556 448 558 449 557 446

Z

M304 416

C307 412 311 407 315 404

L320 398

L313 391

C302 382 290 370 288 366

C285 362 285 359 288 343

C291 328 292 319 290 316

C289 315 286 313 284 312

C280 309 280 309 278 310

C274 313 273 315 274 320

C276 325 277 330 276 331

C275 331 272 329 270 326

C267 323 264 320 263 320

C262 320 260 321 258 323

C255 326 255 327 259 334

C262 339 263 342 261 342

C260 342 258 342 256 341

C251 340 248 340 248 343

C248 344 248 344 247 343

C246 340 245 339 242 340

C241 341 239 343 238 344

L236 346

L241 346

C246 346 247 346 248 348

C248 349 251 350 255 352

C258 353 261 354 261 355

C261 356 258 357 256 358

C247 361 246 363 251 368

C253 370 256 371 259 372

C265 373 265 373 266 377

C267 379 267 381 267 382

C267 383 268 383 270 381

C272 380 272 381 273 389

C276 403 276 402 279 400

C281 399 282 398 282 398

C283 398 283 402 284 405

C284 409 285 412 285 413

C286 413 287 412 288 411

L291 409

L292 415

C293 418 294 422 295 424

L296 427

L298 425

C299 424 302 420 304 416

Z

M247 366

C247 365 246 365 245 364

C244 364 239 368 238 370

C237 372 237 372 242 370

C245 369 247 368 247 366

Z

M390 352

C390 352 389 350 388 350

C386 348 384 348 373 348

L359 348

L351 343

C343 339 341 339 346 343

C350 348 354 351 358 352

C362 353 390 353 390 352

Z

M455 320

C457 318 459 316 459 316

C459 315 461 313 463 311

C467 308 467 307 465 305

C464 303 463 303 460 304

C457 305 456 305 454 303

C452 301 452 300 453 297

C454 293 454 293 452 291

C450 289 449 289 447 291

C444 293 443 293 439 292

C437 291 437 290 437 286

C438 281 438 281 434 280

C431 279 431 279 429 281

C427 284 425 285 422 283

C419 282 419 281 419 277

C419 275 419 273 418 273

C418 273 417 273 415 272

C414 272 413 272 413 276

C412 278 411 280 410 281

C410 282 409 285 408 288

L408 293

L413 294

C425 299 438 308 446 319

C449 324 449 324 455 320

Z

M257 322

C260 319 257 315 250 315

C246 315 246 316 250 320

C253 323 255 324 257 322

Z

M275 311

C276 308 274 306 269 306

C267 306 265 306 265 307

C265 307 266 308 267 310

C270 313 273 314 275 311

Z

M566 413

C567 411 567 409 567 409

C567 409 567 409 568 409

C569 409 568 413 566 415

C565 416 565 416 566 413

Z

M365 406

C368 397 374 389 385 379

C389 375 392 373 390 374

C389 375 386 379 382 382

C376 388 371 395 373 396

C375 398 398 380 405 372

C407 370 409 368 408 370

C407 373 393 386 383 393

C378 397 372 402 369 404

C365 408 365 408 365 406

Z

M405 401

C405 399 405 396 406 396

C407 395 407 396 407 397

C407 399 407 400 408 400

C408 400 412 397 416 393

C422 387 423 386 420 390

C418 392 414 397 411 401

L405 407

L405 401

Z

M396 394

C396 391 396 388 397 387

C398 386 398 386 398 388

C398 390 398 391 399 391

C399 391 403 388 406 385

C413 379 413 380 403 390

C401 392 399 395 398 397

L396 400

L396 394

Z

M429 391

C429 390 430 388 431 386

C432 383 433 383 432 384

C432 387 429 392 429 391

Z

M362 384

C363 383 364 383 364 383

C365 383 364 384 363 385

C361 386 361 386 362 384

Z

M419 371

C419 369 419 367 420 367

C421 366 421 367 421 368

C421 370 421 370 424 368

C427 367 429 364 431 360

C432 358 433 357 433 358

C433 360 422 374 420 375

C419 375 419 373 419 371

Z

M448 315

C446 314 445 311 447 311

C448 311 452 315 452 316

C452 317 451 317 448 315

Z

M438 305

C437 304 436 303 436 303

C436 302 439 302 441 303

C443 306 441 307 438 305

Z

M426 296

C425 296 425 295 425 294

C426 293 431 296 431 297

C431 299 427 298 426 296

Z

M416 292

C413 290 412 288 414 288

C416 288 421 292 419 292

C419 293 417 292 416 292

Z

"/>

<path fill="#090904" stroke="none" d="
M370 967

C311 964 255 951 198 929

C183 923 183 923 183 910

C183 904 183 899 182 898

C181 896 177 895 171 894

C164 893 158 889 141 875

C119 857 106 850 95 848

C92 848 90 848 89 847

C87 847 97 839 109 831

C123 822 132 819 147 818

L158 818

L158 813

C156 804 151 790 140 768

C134 756 128 745 128 745

C127 742 154 748 164 752

C170 755 179 761 185 766

C196 776 206 786 210 791

C213 796 213 797 213 801

C212 804 212 808 213 810

C214 814 215 814 240 822

C286 837 334 846 380 849

L391 849

L387 844

C380 835 363 820 353 813

C330 796 314 790 264 779

C249 776 232 772 226 770

C212 766 194 758 184 752

C174 746 155 732 149 726

C136 713 126 694 120 671

C114 646 115 658 114 433

C114 245 113 226 112 222

C107 210 104 206 90 195

C81 187 79 183 81 179

C84 174 67 174 397 174

L702 175

L705 177

C711 181 709 185 698 195

C687 203 684 207 680 214

C674 225 675 210 674 435

C673 657 674 647 669 669

C663 691 654 711 641 724

C629 737 599 757 583 763

C581 763 577 765 574 766

C565 769 549 774 520 780

C474 790 456 798 433 815

C421 824 415 829 404 841

L397 849

L411 849

C457 846 513 836 567 819

C576 816 580 814 580 813

C580 812 579 809 579 805

C576 795 576 793 582 788

C594 777 609 763 614 759

C626 750 645 743 659 743

C662 743 665 743 665 744

C665 745 654 760 647 771

C643 776 639 783 637 786

C633 796 631 813 633 816

C634 817 637 818 643 818

C658 819 679 827 698 840

C703 844 705 846 704 846

C703 846 698 847 692 849

C675 853 670 855 651 870

C648 873 637 881 628 887

C618 893 610 899 609 900

C607 901 607 902 608 909

C609 917 608 919 603 921

C601 922 594 925 587 928

C518 958 446 971 370 967

Z

M412 962

C459 959 510 949 560 933

C575 927 598 918 600 917

C602 915 602 912 602 862

C602 833 602 808 602 808

C601 808 598 810 594 811

C581 818 537 832 505 839

C464 849 439 852 401 853

C335 854 290 846 218 819

C207 815 197 812 196 812

C194 811 192 811 191 810

C189 810 189 811 189 864

L190 918

L193 920

C198 924 241 939 271 947

C303 955 336 960 366 962

C387 963 392 963 412 962

Z

M180 889

C181 888 181 877 181 847

C181 825 181 806 182 804

C182 800 185 798 195 795

L203 792

L197 786

C187 775 173 763 163 758

C154 754 139 750 138 751

C137 751 139 754 141 758

C151 772 157 786 162 806

C163 813 165 821 165 823

L165 827

L146 827

C126 828 120 829 112 833

C107 835 102 841 102 843

C102 844 103 844 105 844

C110 844 125 852 134 858

C137 860 144 867 150 871

C156 876 162 882 165 884

C172 890 177 891 180 889

Z

M623 884

C628 881 635 875 639 871

C650 861 661 854 669 849

C675 846 678 845 684 844

C689 844 692 843 692 843

C692 842 679 834 674 832

C663 827 643 823 633 825

L627 825

L626 822

C624 817 625 808 629 796

C632 782 638 771 649 757

C651 753 653 751 653 750

C651 749 635 754 626 759

C618 763 615 765 602 777

C594 785 587 792 587 792

C587 793 588 793 589 793

C590 793 595 794 599 795

C605 797 607 798 608 799

C609 801 609 813 609 844

C609 887 609 889 613 889

C614 889 618 887 623 884

Z

M405 828

C411 821 421 813 427 809

C451 790 469 783 513 773

C549 765 553 764 565 760

C586 753 605 743 625 727

C646 710 655 692 663 656

C664 648 664 630 665 439

C666 241 666 229 667 224

C672 209 679 198 692 188

L698 184

L397 183

C232 183 95 183 93 183

L90 184

L95 187

C103 193 112 204 116 211

C123 226 122 206 123 438

C124 646 124 647 126 658

C132 689 143 711 161 726

C189 748 212 759 251 767

C301 779 315 783 331 790

C350 799 370 814 385 830

C390 835 394 839 394 839

C394 839 399 834 405 828

Z

M596 806

L600 804

L598 802

C595 800 587 798 585 799

C583 800 583 801 584 804

C586 812 585 812 596 806

Z

M205 806

C205 801 205 801 202 801

C199 801 193 804 193 805

C193 806 198 808 205 810

C205 810 205 808 205 806

Z

M546 166

C505 159 447 153 403 151

C368 150 311 154 252 163

C239 164 233 165 233 164

C231 163 215 94 215 90

C215 88 216 87 216 86

C217 86 224 84 233 82

C247 78 249 78 250 79

C250 80 252 85 253 90

C254 95 256 99 257 100

C258 100 271 98 272 97

C272 96 272 91 273 84

C273 73 274 71 275 70

C276 69 288 68 301 67

C314 65 326 64 327 64

C329 63 331 64 332 65

C334 68 337 76 337 80

C337 81 337 83 338 85

L338 88

L347 88

C352 87 356 86 357 86

C359 85 359 83 359 74

C359 67 360 63 361 62

C362 61 369 61 390 61

L418 61

L420 63

C421 65 422 71 422 76

L422 85

L431 85

C435 86 440 86 440 85

C441 85 442 82 443 77

C444 65 443 66 456 66

C474 67 499 70 501 71

C503 72 504 79 504 91

C504 96 504 97 506 97

C513 99 527 101 529 101

C531 101 531 100 533 92

C533 87 535 82 535 81

C537 79 541 80 551 83

C566 89 571 92 571 94

C571 96 560 143 555 161

C554 166 552 167 546 166

Z

M548 158

C549 156 549 152 550 148

C550 142 550 142 548 141

C543 139 535 138 533 139

C532 140 529 152 529 154

C529 156 532 157 537 159

C545 161 546 161 548 158

Z

M253 157

L263 156

L263 151

C263 144 261 138 260 138

C258 137 237 142 235 143

C232 146 238 161 242 160

C242 159 247 158 253 157

Z

M526 153

C528 152 529 138 527 137

C527 136 516 134 504 132

C481 127 464 124 449 123

L439 123

L439 130

C437 142 438 145 440 145

C441 146 457 148 474 150

C491 152 507 154 510 154

C517 155 525 155 526 153

Z

M285 152

C293 151 311 149 324 148

C338 148 349 146 350 146

C351 145 352 123 350 123

C349 122 322 125 307 127

C293 129 267 134 266 135

C263 137 265 154 268 154

C268 154 276 153 285 152

Z

M435 134

L435 123

L429 122

C422 121 373 121 364 122

L356 122

L356 133

C356 140 356 144 357 145

C358 146 368 146 396 146

L435 146

L435 134

Z

M255 133

C266 130 283 126 292 124

C302 123 310 121 310 120

C311 119 309 100 308 99

C307 99 281 103 268 106

C252 109 230 116 229 118

C228 120 233 138 234 138

C235 138 244 136 255 133

Z

M552 136

C552 135 554 131 554 127

C556 120 556 118 555 117

C553 116 518 106 505 104

C490 102 476 100 475 100

C475 100 475 105 474 110

C473 120 473 122 477 122

C478 122 494 125 512 129

C530 133 547 137 548 137

C550 137 551 136 552 136

Z

M357 117

C370 117 383 116 386 115

L390 114

L390 105

C390 101 390 96 389 95

C388 93 320 97 315 99

C313 100 313 101 315 115

L315 120

L324 120

C329 119 344 118 357 117

Z

M468 118

C469 116 471 99 469 99

C465 96 400 92 397 95

C395 96 395 98 395 105

L395 115

L399 115

C401 116 408 116 414 116

C420 116 433 117 442 117

C465 119 467 119 468 118

Z

M562 109

C563 106 563 102 563 100

L564 95

L553 91

L542 87

L541 89

C539 94 538 105 539 106

C540 107 556 113 558 113

C560 113 561 111 562 109

Z

M239 109

C245 107 250 106 250 105

C250 105 249 101 247 95

C243 84 243 84 233 87

C222 90 221 91 221 93

C221 97 226 112 228 112

C229 112 234 111 239 109

Z

M305 95

C317 93 328 91 328 90

C329 89 329 86 328 80

L326 70

L322 70

C317 70 286 74 283 75

C281 76 281 76 281 87

C281 95 281 98 282 98

C283 98 293 96 305 95

Z

M495 87

C495 81 495 76 494 76

C493 75 453 70 452 71

C451 72 450 89 451 90

C452 92 484 97 490 97

L495 97

L495 87

Z

M411 88

L414 88

L414 80

C414 67 416 68 390 68

C369 68 368 68 367 70

C366 72 366 89 367 89

C369 90 407 89 411 88

Z

M368 945

C370 945 371 943 371 929

L372 918

L369 918

C366 918 364 920 363 923

C362 924 362 923 362 920

L362 916

L373 916

C380 916 386 916 386 917

C388 917 388 919 388 921

L388 926

L386 922

C385 919 384 918 381 918

L378 918

L378 931

C378 945 378 945 380 945

C381 946 379 946 375 946

C370 946 367 946 368 945

Z

M388 945

C389 944 393 937 396 930

C399 922 402 916 402 917

C403 917 405 923 408 931

C412 938 415 944 416 945

C417 946 416 946 411 946

C407 946 405 946 406 945

C407 945 407 944 406 941

C405 938 404 938 399 938

C394 938 394 938 393 941

C392 943 392 944 394 945

C395 946 395 946 391 946

C387 946 387 946 388 945

Z

M403 936

C403 934 400 927 399 927

C399 927 398 929 397 932

L395 936

L399 936

C401 936 403 936 403 936

Z

M423 944

C420 942 419 937 419 928

C419 921 419 920 417 918

L415 916

L422 916

C427 916 428 916 427 917

C424 919 426 941 429 943

C431 945 435 944 437 942

C439 940 439 939 439 929

C439 919 439 918 437 917

C435 915 436 915 443 915

C448 914 455 914 459 913

C465 913 466 913 468 915

C472 918 472 923 469 926

L466 929

L471 935

C479 943 479 943 485 921

C486 914 488 909 488 909

C488 909 492 914 496 920

C499 926 504 932 505 933

L508 936

L501 937

C498 938 495 938 494 938

C494 937 494 937 495 937

C498 937 497 935 495 932

C493 930 493 930 488 931

C484 931 483 932 483 934

C483 936 483 938 484 939

C486 940 485 940 478 941

L470 942

L464 936

C461 933 458 930 457 930

C457 930 457 932 457 934

C457 941 458 942 460 942

C463 942 455 944 452 944

C449 944 449 944 450 943

C451 942 451 938 449 929

C449 922 448 916 448 916

C448 916 446 916 445 916

L441 916

L441 928

C441 940 441 940 438 943

C436 946 434 946 430 946

C428 946 424 945 423 944

Z

M491 928

C492 928 491 925 490 924

C488 920 486 919 486 921

C486 921 486 923 485 925

L484 929

L488 929

C489 929 491 929 491 928

Z

M462 926

C463 926 464 923 464 922

C464 917 462 915 458 915

C455 915 455 915 456 923

C456 927 457 928 459 928

C460 928 462 927 462 926

Z

M348 944

C346 943 346 943 347 943

C349 943 349 942 349 940

C348 938 348 936 348 936

C347 936 345 936 342 936

C337 936 337 936 336 938

C335 940 335 941 336 942

C337 943 336 943 333 943

C329 943 329 943 331 941

C332 940 336 934 340 927

C344 919 347 914 347 915

C348 916 350 923 352 930

C355 937 358 944 358 944

C360 945 350 945 348 944

Z

M345 929

C344 927 344 924 343 924

C343 924 342 926 341 928

C338 933 338 934 344 934

L347 934

L345 929

Z

M317 941

C314 941 314 941 316 939

C317 938 318 935 319 927

C320 921 321 917 321 916

C320 916 317 921 313 928

C309 934 306 939 306 938

C305 937 304 933 303 928

C298 910 299 910 297 923

C295 934 295 937 298 937

C299 937 299 937 299 938

C298 938 295 938 293 937

C291 937 289 936 290 936

C293 936 294 934 296 921

C297 910 297 910 295 908

C294 907 294 907 298 908

C305 909 306 909 307 918

C308 923 310 927 310 928

C310 929 313 926 316 920

L321 911

L327 912

C332 913 333 914 331 914

C329 915 328 915 327 925

C326 930 325 936 325 938

C326 942 326 942 317 941

Z

M510 934

C512 932 512 932 509 921

C507 911 506 909 504 908

C502 907 502 906 507 905

L511 904

L520 911

C524 914 528 917 529 917

C529 916 528 913 527 909

C526 904 525 902 523 902

C521 902 521 901 525 900

C529 900 530 900 529 900

C527 902 528 905 531 918

C533 924 534 929 534 930

C534 930 528 926 522 921

C515 916 510 912 509 912

C509 913 509 916 510 919

C514 931 514 932 516 932

C519 932 517 934 512 934

C509 935 509 935 510 934

Z

M263 930

C255 928 253 927 254 926

C256 925 262 903 261 901

C260 900 259 899 258 899

C255 899 243 904 242 905

C242 907 247 922 250 925

C252 928 252 928 244 925

C239 923 238 923 239 920

C239 917 236 908 235 908

C234 908 233 910 232 913

C230 917 230 918 232 919

C233 921 232 921 227 919

C222 917 220 916 222 916

C224 915 231 895 231 891

C231 890 232 889 232 889

C233 890 236 890 238 891

C242 892 242 893 240 893

C239 894 238 896 237 899

C236 902 235 904 235 904

C236 905 250 899 251 899

C251 898 251 897 250 896

C249 895 249 895 251 895

C252 896 259 898 267 900

L282 904

L281 908

L280 913

L279 909

C278 906 274 903 270 903

C269 903 268 904 267 909

C266 912 266 914 266 915

C267 916 271 914 272 911

C274 908 274 909 272 916

C271 922 269 925 269 921

C269 918 267 916 266 916

C265 916 265 918 264 920

C263 923 263 925 262 926

C262 927 263 928 265 929

C270 931 272 930 275 927

C278 924 279 925 277 930

C276 931 275 933 274 933

C273 933 268 932 263 930

Z

M545 923

C540 922 536 917 535 913

C532 903 540 892 551 892

C553 892 555 891 556 890

C556 889 557 890 558 894

L560 899

L556 896

C549 891 541 895 541 904

C541 909 544 916 547 919

C549 921 555 922 558 920

C559 918 559 918 558 914

C557 911 556 910 555 910

C553 910 555 909 559 907

C562 906 566 905 566 905

C566 906 566 906 565 906

C564 906 564 910 565 913

C566 916 566 916 564 918

C558 922 550 925 545 923

Z

M571 915

C572 913 572 910 572 900

C571 893 571 886 570 885

C570 884 570 883 571 883

C571 883 577 887 583 892

C589 898 595 902 596 902

C598 902 596 904 591 906

C588 908 585 909 586 908

C588 906 587 904 585 903

C582 901 582 901 578 903

C573 905 573 906 574 909

C574 911 575 912 576 912

C578 912 578 912 575 914

C571 916 569 917 571 915

Z

M578 901

C580 901 581 900 580 899

C580 899 578 897 576 896

L573 893

L573 898

C573 903 574 904 578 901

Z

M203 909

C193 904 191 903 195 904

C197 904 198 903 203 893

C206 886 208 881 208 880

C208 880 207 879 206 878

C202 876 206 877 216 882

C222 885 227 887 227 888

C227 888 226 890 225 892

L223 896

L223 892

C223 888 222 886 217 884

C215 883 215 883 213 888

C211 891 210 893 210 894

C210 896 215 895 216 893

C219 889 218 893 215 899

L212 905

L212 901

C212 898 211 897 210 897

C209 896 209 896 209 896

C209 896 207 899 206 901

C204 906 204 906 205 908

C208 910 215 911 218 908

L220 907

L218 910

C217 912 216 914 215 914

C214 914 209 912 203 909

Z

M367 886

L359 874

L358 882

C357 893 357 896 360 896

C361 897 359 897 356 897

C352 897 351 897 353 896

C356 895 356 893 356 881

C356 871 356 870 355 868

C353 867 353 867 358 867

L363 867

L369 877

L376 886

L376 882

C377 880 377 877 377 874

C377 871 377 870 375 869

C373 868 377 868 387 868

C399 868 402 869 404 870

C413 876 413 891 404 896

C400 898 381 899 384 897

C386 896 386 894 386 882

C386 870 385 869 383 869

C379 869 378 871 378 882

C378 888 377 894 377 896

C376 898 376 898 367 886

Z

M398 896

C402 894 403 890 403 883

C403 875 400 870 395 870

C393 870 393 871 393 883

C393 892 393 896 394 896

C395 897 396 897 396 897

C396 897 397 896 398 896

Z

M415 897

C417 895 417 894 417 883

C416 871 416 870 414 869

C412 868 414 868 419 868

C423 868 429 868 431 867

L436 867

L436 871

C436 875 436 875 435 873

C434 871 430 869 426 869

C423 869 423 869 423 875

C423 878 423 881 424 882

C426 882 429 879 429 877

C429 872 430 876 430 883

C431 890 431 890 429 888

C428 885 426 883 425 883

C424 883 424 886 424 889

C424 896 425 897 431 895

C433 895 435 893 437 891

L439 888

L439 892

C438 894 438 897 438 897

C438 897 432 897 425 898

C415 898 414 898 415 897

Z

M443 894

C444 893 447 885 449 878

L454 865

L461 878

C465 885 469 892 470 893

C471 894 470 894 468 894

C463 895 458 895 460 894

C461 893 461 893 460 890

C458 887 458 887 453 887

C447 888 447 888 447 891

C446 894 446 894 448 895

L451 895

L448 896

C447 896 444 897 443 897

L441 897

L443 894

Z

M456 885

C457 885 456 883 454 880

C453 878 452 876 452 876

C451 876 451 879 450 881

L448 886

L451 886

C453 886 455 886 456 885

Z

M331 895

C324 894 320 893 325 893

C327 893 328 892 329 878

C330 870 329 867 329 866

C328 865 329 865 337 865

C342 866 347 866 348 867

C350 867 351 871 349 874

C348 875 348 875 348 873

C348 871 345 868 341 867

C338 867 337 867 337 869

C336 870 336 873 336 875

C336 878 336 879 338 879

C339 879 341 878 342 876

L343 873

L343 876

C343 880 341 889 341 886

C341 884 338 881 336 881

C335 881 335 883 335 887

C335 893 336 894 338 894

C343 894 346 893 348 890

C350 886 350 887 349 892

C348 896 348 896 343 896

C341 896 335 895 331 895

Z

M481 889

C479 887 476 881 472 876

C469 870 466 866 465 866

C462 866 467 864 473 864

C476 863 478 863 477 864

C476 864 475 865 475 866

C475 868 484 882 485 881

C486 880 489 868 489 865

C489 864 488 863 487 863

C485 863 485 863 487 862

C488 862 490 861 491 861

C494 861 494 861 493 863

C492 864 489 872 487 879

C485 886 484 893 483 893

C483 893 482 891 481 889

Z

M302 891

C299 891 299 891 300 889

C302 887 304 877 303 877

C303 876 300 876 298 876

L293 875

L292 881

C292 887 292 888 294 889

C295 890 295 890 294 890

C293 889 290 889 287 888

C282 888 282 888 283 886

C284 885 289 864 289 861

C289 860 288 860 287 859

C285 858 286 858 289 859

C295 859 301 861 299 861

C297 861 295 863 295 869

C294 873 293 873 301 875

C304 875 304 875 305 869

C306 864 306 864 304 862

C303 861 303 861 307 862

C314 863 318 864 315 864

C314 864 313 865 313 866

C311 870 309 888 309 890

C310 892 309 892 302 891

Z

M508 887

C501 885 497 879 497 871

C497 862 503 857 513 857

C521 857 527 863 527 873

C527 875 526 878 525 880

C522 885 514 889 508 887

Z

M518 884

C520 882 520 881 520 875

C519 861 512 854 506 860

C502 864 504 878 509 883

C512 887 515 887 518 884

Z

M263 883

C255 881 252 875 252 868

C253 860 258 854 266 853

C269 853 271 853 275 855

C278 857 281 858 282 857

C283 857 283 858 283 861

C282 865 280 868 280 864

C280 861 275 856 271 855

C265 854 259 863 259 873

C259 878 260 880 263 882

C268 884 270 883 271 879

C272 875 272 874 270 873

C269 872 269 872 272 872

C273 873 276 874 279 874

C282 875 282 875 280 876

C279 877 278 878 278 881

L277 885

L272 885

C269 885 265 884 263 883

Z

M539 879

C536 878 534 875 531 866

C527 855 527 854 524 855

C524 855 523 855 523 855

C523 854 535 850 537 850

C537 850 537 851 536 851

C534 853 534 853 537 862

C541 876 541 876 545 876

C550 876 552 873 552 869

C552 865 548 851 545 849

C544 848 544 847 545 847

C546 847 551 845 557 843

C562 840 568 838 569 838

C573 838 577 842 577 845

C577 847 576 849 575 850

C574 852 574 852 584 858

L589 861

L585 862

C581 864 581 864 575 860

C565 854 564 855 568 862

C570 866 571 867 572 867

C574 867 572 868 568 870

C561 873 560 874 563 872

C564 870 564 870 559 858

C555 850 553 847 551 847

C549 847 549 850 551 859

C555 870 555 875 549 877

C546 879 541 880 539 879

Z

M568 853

C571 851 571 850 571 848

C569 842 565 840 561 842

C559 843 559 843 562 849

C563 852 565 855 565 855

C565 855 567 854 568 853

Z

M239 876

C234 875 234 875 236 873

C238 871 245 849 244 848

C244 847 243 847 241 847

C238 847 238 848 234 858

C231 864 229 870 229 871

C229 871 230 872 231 873

C234 875 231 874 224 871

C220 869 218 868 220 868

C222 868 223 867 224 863

C225 861 226 858 226 858

C226 856 220 853 218 853

C218 853 216 855 215 858

C213 862 213 864 214 865

C215 866 215 867 214 867

C214 867 211 866 209 865

C204 863 204 863 205 861

C206 860 209 855 212 849

C216 838 216 838 214 836

C213 834 213 834 215 835

C222 837 226 840 225 840

C223 840 217 850 219 851

C219 851 221 852 224 853

L228 855

L230 849

C232 844 232 843 230 842

C228 840 229 841 235 843

C237 844 243 846 247 848

C252 849 256 850 256 851

C256 851 256 851 255 851

C252 850 251 851 248 863

C244 874 243 877 245 877

C248 879 243 878 239 876

Z

M380 809

C374 803 365 795 361 792

C340 778 310 768 251 755

C188 740 154 714 141 669

C135 648 136 663 135 432

C135 312 134 220 134 219

C133 217 131 214 128 211

C123 204 122 201 124 199

C126 197 147 197 394 197

C636 197 662 197 663 199

C666 201 665 203 661 208

C660 211 657 215 656 217

L654 222

L653 434

L652 646

L650 655

C645 677 639 693 628 707

C608 732 578 746 522 758

C494 764 464 773 445 782

C431 789 421 796 407 810

C399 817 396 820 394 820

C392 820 388 816 380 809

Z

M404 803

C417 791 426 784 437 779

C456 769 488 758 520 751

C529 750 541 747 548 745

C608 729 638 698 645 645

C646 638 646 574 646 434

C646 311 646 229 647 224

C648 217 651 209 654 206

C655 205 656 204 656 204

C656 203 538 203 394 203

C250 203 132 203 132 204

C132 204 133 206 135 208

C137 210 139 214 140 216

C141 220 142 232 142 433

L143 646

L145 655

C151 682 162 701 179 715

C199 733 221 741 273 753

C289 756 313 763 327 768

C352 777 366 786 384 803

C389 808 394 812 394 812

C394 812 399 808 404 803

Z

M381 779

C358 762 338 754 282 740

C241 729 225 724 207 715

C195 709 193 708 184 700

C177 692 175 689 170 680

C165 669 163 663 160 649

C159 641 159 616 158 431

C158 222 158 222 160 220

C162 218 162 218 394 218

C619 218 627 218 628 220

C630 222 630 236 630 432

C629 623 629 643 628 650

C624 667 620 678 614 688

C598 711 575 722 505 740

C469 749 454 754 438 761

C427 766 408 778 400 785

C397 787 395 789 394 789

C394 789 388 785 381 779

Z

M405 772

C419 762 440 752 458 746

C466 743 484 738 499 734

C543 724 567 715 584 706

C593 701 607 688 611 679

C615 670 617 664 620 652

L622 643

L623 434

C623 296 623 225 623 225

C622 224 519 224 394 224

C269 224 166 224 166 225

C165 225 165 295 165 433

C166 629 166 640 167 649

C170 660 174 674 178 681

C180 684 184 689 187 693

C203 709 223 718 284 733

C341 747 359 755 384 773

C389 777 394 780 394 780

C394 780 399 776 405 772

Z

M481 700

C479 698 477 695 477 694

C474 684 474 684 472 686

C470 687 468 688 466 689

C464 690 460 692 458 695

C453 700 453 700 452 698

C451 697 451 693 450 690

C450 686 450 684 452 680

C455 675 456 672 454 670

C452 669 446 669 441 670

C437 671 437 671 437 668

C437 664 441 660 451 655

C459 651 461 650 477 648

C480 648 483 647 485 646

C487 643 487 643 487 635

C487 625 486 621 482 615

C477 608 476 608 458 607

C442 606 441 606 435 603

C426 598 417 589 415 583

C414 580 413 577 413 576

C413 574 413 574 408 574

C401 575 398 577 394 581

C390 586 390 591 393 598

C398 609 398 614 392 622

C390 624 388 627 388 628

C387 629 387 630 389 631

C394 635 391 636 381 634

C377 633 376 633 377 634

C379 636 373 635 366 634

C360 632 360 632 363 634

L365 636

L360 636

C358 635 354 634 352 633

C350 633 347 632 345 632

C340 632 331 629 325 624

C322 622 317 619 315 618

L310 615

L308 620

C307 622 305 624 304 625

C303 625 303 627 303 631

C303 636 303 637 301 637

C300 637 298 636 297 634

C294 631 290 622 290 619

C290 616 282 616 276 620

C274 622 271 623 271 623

C270 623 270 621 270 619

C270 614 275 603 278 599

C280 597 280 597 278 595

C276 594 275 593 268 593

C265 592 262 591 261 591

C260 589 260 589 262 586

C263 584 266 582 269 580

C274 578 276 578 282 578

L290 578

L290 574

C290 571 289 568 288 566

C288 564 287 561 287 559

C287 556 287 556 290 556

C293 556 301 562 305 566

C307 569 307 571 307 577

C307 585 308 587 311 589

C316 592 350 594 354 592

C357 590 356 585 351 574

C346 563 346 562 346 555

C346 534 353 520 370 512

L376 509

L367 504

C356 499 346 491 341 486

C337 480 332 470 331 465

C331 461 329 458 329 461

C329 462 317 471 316 471

C315 471 315 470 315 469

C315 467 314 467 310 471

C305 476 298 480 296 479

C295 479 292 481 290 484

C283 490 277 494 276 494

C276 493 275 492 275 490

L274 487

L268 493

C265 496 262 498 261 498

C260 497 259 499 257 504

C256 506 255 510 254 511

C253 513 245 519 243 519

C243 519 242 515 243 511

C243 506 243 503 242 501

C241 499 241 499 234 505

C228 511 228 511 222 511

C219 511 215 511 214 510

L212 509

L216 504

C221 499 221 499 221 493

C221 488 220 487 218 487

C216 487 212 488 208 488

C204 489 199 490 197 490

L193 490

L194 486

C196 482 205 472 208 470

C210 470 213 469 215 468

C217 468 219 467 220 467

C220 466 215 462 207 457

C204 454 200 451 199 449

L197 446

L205 446

C217 446 227 448 232 450

C234 451 239 455 243 459

C248 463 251 466 252 466

C253 466 257 463 262 461

C272 456 280 448 287 439

L292 431

L290 424

C289 419 289 418 288 420

C287 421 287 423 288 425

C288 427 288 427 287 426

C285 425 280 415 280 413

C280 412 280 411 279 412

C278 412 278 413 278 414

C278 415 278 416 277 416

C276 416 271 405 270 398

C269 393 268 392 267 393

C266 395 266 395 266 392

C265 391 264 386 263 383

C261 377 261 376 258 375

C256 375 253 374 251 373

C248 371 247 371 244 372

C242 373 239 374 237 374

C232 375 232 374 234 369

C236 366 240 363 247 359

C252 355 253 354 250 354

C248 354 246 353 245 352

C243 350 242 349 239 349

C237 349 235 348 234 348

C232 347 232 346 234 343

C238 338 242 336 250 337

L257 337

L254 334

C253 332 252 329 251 328

C251 326 249 322 245 319

C239 314 239 313 246 312

C249 311 252 312 254 313

C257 313 260 315 262 315

C264 315 266 317 267 318

C268 319 269 319 269 318

C269 318 268 317 267 316

C266 316 264 312 261 309

L257 303

L262 302

C274 301 290 308 295 317

C297 321 296 331 294 343

C291 355 290 360 293 363

C293 365 301 372 309 379

L324 392

L330 388

C333 386 339 383 342 382

C346 381 349 379 351 377

C352 376 355 374 358 373

L362 372

L362 364

L362 357

L358 356

C350 355 341 347 337 339

C331 328 332 327 341 333

C347 337 356 342 358 342

C359 342 359 335 357 327

C354 313 354 312 358 308

C361 304 365 304 375 307

C382 309 383 309 386 308

C389 306 390 306 390 304

C390 301 396 295 400 293

C402 292 403 291 404 286

C404 281 405 278 406 277

C407 276 408 274 408 272

C408 269 410 265 411 265

C411 265 414 266 417 267

C423 269 423 269 423 273

C423 280 424 281 427 276

C431 272 432 272 439 278

C442 280 442 281 441 284

C441 289 442 290 446 287

C449 283 451 283 456 288

C460 291 460 292 459 295

C457 300 458 301 462 299

C466 298 468 299 471 305

C473 309 473 310 467 314

C465 316 463 318 463 319

C463 320 461 323 458 325

C455 327 453 329 454 330

C455 334 455 335 452 339

C450 341 448 344 447 346

C446 347 444 349 443 350

L440 352

L442 357

C445 364 446 377 446 385

C445 395 443 400 435 414

C425 432 422 441 424 450

C426 463 433 471 459 492

C475 504 481 510 489 521

L492 524

L496 523

C502 520 508 514 508 509

C510 501 506 484 499 472

C498 469 492 459 487 451

C476 433 470 423 467 413

C465 406 465 404 465 391

C465 378 465 374 467 368

C474 346 487 333 506 328

C515 326 532 327 541 330

C555 335 567 347 573 362

C577 372 583 392 583 398

C583 400 584 404 584 406

C586 412 585 416 577 430

C569 444 567 453 568 464

L568 473

L564 469

C552 458 547 451 543 437

C540 425 544 405 550 401

C552 399 554 398 555 398

C555 398 556 396 555 393

C555 391 555 384 555 380

C554 360 544 348 527 344

C517 342 508 346 498 355

C484 371 482 390 494 415

C499 424 504 433 517 449

C522 456 529 464 531 468

C546 492 544 519 526 538

C520 545 515 548 506 551

C501 552 500 553 500 554

C501 555 502 559 503 563

C506 581 506 581 510 585

C512 588 513 588 516 587

C517 586 520 585 521 584

C525 581 525 581 525 586

C525 591 522 597 518 600

C516 601 515 602 515 602

C515 604 524 603 527 601

L530 600

L530 605

C530 611 528 616 524 621

C521 625 523 625 527 621

L530 618

L530 621

C531 623 530 627 530 630

C528 636 528 636 530 634

C531 633 531 633 530 636

C529 640 526 646 523 648

C521 650 519 651 519 651

C517 651 518 654 522 658

C527 662 527 662 527 670

C528 679 527 683 522 686

C518 687 518 687 517 686

C516 685 516 683 516 682

C516 678 515 676 509 673

L503 669

L500 673

C499 675 496 679 495 681

C494 683 492 687 491 688

C489 690 489 692 489 697

C489 703 489 703 487 703

C485 703 483 702 481 700

Z

M486 695

C486 690 485 688 482 688

C479 688 479 690 481 694

C484 701 486 701 486 695

Z

M459 688

C461 686 463 684 463 683

C462 683 463 682 465 683

C468 683 469 683 472 680

C475 678 477 677 477 677

C478 677 478 679 478 682

L479 687

L483 687

C487 687 487 686 489 681

C492 675 500 665 502 665

C503 665 506 667 509 669

C513 670 516 672 516 672

C517 671 518 672 518 673

C518 678 519 683 520 683

C520 683 522 681 523 679

C526 673 525 670 521 670

L519 671

L521 669

C524 665 524 664 519 659

C516 657 514 654 514 653

C514 653 513 651 513 651

C511 649 511 649 514 648

C517 647 523 642 523 641

C523 640 522 640 521 640

C519 640 518 640 518 639

C517 638 517 638 518 638

C520 638 525 632 525 630

C525 628 524 628 522 628

C521 628 518 627 516 626

L513 624

L516 622

C520 620 526 612 526 609

C526 608 525 608 522 608

C519 608 513 606 510 603

C507 601 508 600 510 600

C512 600 518 596 520 592

C521 589 521 589 519 590

C518 590 516 591 513 591

C504 592 500 585 496 562

C495 556 494 551 494 550

C493 549 494 548 499 547

C520 543 533 526 533 502

C533 486 529 477 511 452

C492 427 481 403 481 386

C481 369 493 349 506 342

C521 335 538 338 549 350

C558 361 561 370 560 385

C560 391 560 396 561 398

C562 401 562 401 559 401

C556 401 550 406 549 411

C548 413 548 417 548 420

L549 425

L552 422

C554 420 555 417 556 414

C558 407 559 407 558 414

C558 418 557 420 556 422

C554 423 552 429 553 429

C554 429 555 428 557 426

C558 424 560 423 561 423

C561 423 561 424 559 425

C557 428 556 431 559 437

L561 441

L565 437

C570 433 570 432 571 427

C571 422 572 421 574 420

C579 417 580 415 577 397

C575 380 570 364 564 355

C558 346 550 339 540 335

C532 332 517 331 508 333

C475 342 459 386 476 420

C478 424 484 435 491 445

C509 475 514 487 514 504

C515 515 513 521 507 525

C502 529 494 532 488 532

C485 532 484 531 481 524

C476 514 468 505 454 494

C438 482 429 471 424 463

C422 458 421 458 421 461

C421 463 420 462 417 457

C413 449 410 439 410 433

C410 431 410 429 409 429

C409 429 406 435 404 442

L400 454

L399 445

C398 440 397 436 397 436

C397 436 395 439 393 443

C390 450 384 459 383 459

C383 459 384 454 385 447

C388 430 388 428 387 428

C387 428 386 431 385 434

C384 437 381 444 379 448

L375 457

L374 446

L374 436

L370 441

C368 444 366 448 364 449

L362 452

L362 447

C361 444 361 440 362 438

C363 433 361 434 357 441

C355 444 353 447 353 446

C352 445 352 433 353 429

C353 426 354 424 354 424

C353 424 345 431 342 435

L338 439

L338 432

C339 428 339 422 340 418

C340 412 341 409 343 404

C345 399 346 398 345 396

C345 394 344 392 345 390

C345 386 345 386 343 387

C337 389 327 396 320 404

C313 411 308 418 297 435

C291 445 284 453 278 458

C273 462 254 472 252 472

C252 472 248 469 243 464

C234 457 229 454 223 452

C219 452 219 452 218 454

C217 457 217 457 221 461

C226 467 226 470 222 471

C213 472 212 474 211 477

C211 481 213 483 220 483

L225 484

L225 489

C226 495 227 497 232 498

C236 498 236 498 239 495

C240 493 242 492 242 492

C243 492 243 494 244 496

C245 499 245 499 250 499

C254 499 255 498 258 493

C261 489 262 488 262 490

C263 491 264 490 270 484

C274 480 277 477 277 477

C278 477 278 478 279 480

C280 482 281 483 281 483

C282 483 287 479 293 473

L303 464

L303 467

L303 470

L311 462

L320 454

L320 458

L321 462

L326 456

C331 451 332 450 333 451

C335 454 336 453 339 451

L341 449

L340 452

C335 461 340 475 352 488

C361 496 366 499 385 506

C391 508 399 511 401 512

C407 515 414 522 417 528

L420 534

L420 554

C420 575 421 578 426 585

C429 589 438 595 445 597

C449 598 457 599 464 600

C474 601 477 601 480 603

C488 608 492 621 492 637

C492 647 491 647 489 649

C486 652 482 653 468 654

C458 655 455 656 455 660

C455 662 455 662 454 661

C453 659 452 659 449 660

C447 661 444 662 443 664

L441 666

L447 666

C452 666 454 666 455 664

C456 663 456 663 456 664

C457 665 458 666 460 666

C461 666 463 666 464 667

C466 668 466 668 463 670

C459 673 458 677 460 679

C461 680 461 680 459 679

C458 679 457 680 456 681

C454 684 452 693 454 693

C454 693 457 691 459 688

Z

M300 629

C301 626 300 624 298 624

C295 624 295 626 296 629

C298 633 300 633 300 629

Z

M366 627

C364 624 365 624 369 626

C373 628 384 629 383 627

C382 626 383 624 386 621

C390 618 390 616 390 612

C390 610 389 604 388 599

C384 589 384 587 387 582

C391 575 403 567 411 567

C414 567 414 567 415 560

C415 551 414 537 411 531

C409 526 402 520 394 515

C387 511 385 510 375 514

C361 519 352 533 352 551

C352 560 352 560 358 572

C363 583 364 585 364 590

C364 595 364 596 361 598

C359 600 358 600 348 600

C334 599 311 595 307 593

C304 590 303 587 304 580

C304 573 303 568 300 568

C295 568 294 571 294 578

C295 581 295 584 294 584

C294 585 291 584 288 582

C282 579 278 580 277 584

C276 588 279 591 284 594

L288 597

L284 600

C279 604 279 607 282 611

L285 613

L289 612

C295 610 296 610 294 613

C291 619 296 625 302 622

C303 622 304 619 305 616

C306 614 307 612 308 611

C309 611 321 616 328 621

C334 625 337 625 335 622

C333 618 335 618 342 623

C350 628 352 629 350 626

C350 625 350 624 349 623

C349 621 349 621 352 623

C355 625 364 629 366 629

C367 629 367 629 366 627

Z

M280 614

C281 612 281 611 279 610

C277 607 275 609 273 617

L272 619

L276 617

C278 616 280 614 280 614

Z

M274 589

C277 587 276 584 273 583

C270 583 265 586 265 588

C265 589 267 590 271 590

C272 590 273 589 274 589

Z

M298 565

C298 563 296 561 292 560

C290 559 290 559 292 566

C293 569 297 568 298 565

Z

M250 510

C253 506 253 502 251 501

C248 501 246 503 246 508

C246 511 246 513 247 513

C247 513 249 512 250 510

Z

M228 505

C230 504 231 502 231 501

C231 500 228 498 226 498

C225 498 219 507 219 509

C219 510 226 508 228 505

Z

M209 485

C212 483 211 478 208 478

C206 478 200 484 200 486

C200 487 206 487 209 485

Z

M563 457

C563 455 562 452 562 450

C562 447 561 444 559 444

C559 444 558 446 558 448

C557 452 558 456 562 459

C564 462 564 461 563 457

Z

M217 454

C217 450 215 449 209 449

C206 449 204 449 204 450

C204 451 208 455 210 455

C213 456 216 456 217 454

Z

M419 445

C419 436 421 430 429 412

C442 382 444 372 436 354

C433 346 433 346 437 346

C440 346 442 345 446 338

C449 333 448 331 443 331

C439 331 439 330 442 328

L444 326

L442 322

C438 316 430 309 424 304

C417 300 408 296 405 296

C403 296 396 301 396 303

C395 303 396 306 398 310

C401 315 402 319 401 319

C400 319 398 318 396 317

C392 316 392 316 393 313

C393 311 393 311 391 311

C383 314 380 314 375 313

C372 312 369 311 368 311

C365 309 362 311 361 314

C360 316 360 318 362 324

C363 328 364 334 365 338

C365 346 367 347 369 341

L371 337

L379 337

C389 337 390 337 392 346

C395 354 395 356 394 358

C393 359 387 361 379 363

C369 366 365 367 365 369

C365 372 366 372 373 370

C383 368 388 366 395 362

L402 359

L397 363

C391 369 381 374 370 377

C358 379 352 383 350 390

L350 393

L355 389

L361 386

L356 391

C351 397 349 400 346 406

C344 412 346 412 351 406

C354 403 357 399 359 398

L362 395

L359 400

C353 408 347 417 346 421

L346 425

L351 419

C355 416 357 414 357 415

C356 418 355 435 356 435

C356 435 359 431 362 426

C366 420 368 416 369 416

C369 416 368 418 367 420

C366 423 364 441 365 441

C366 441 374 428 377 423

L379 418

L379 422

C379 424 379 430 379 434

C379 440 379 440 380 439

C383 436 388 419 389 409

C390 403 391 398 392 398

C392 397 389 438 388 441

C387 444 390 443 392 440

C393 438 395 433 397 429

L400 421

L401 425

C401 428 401 431 401 432

C399 438 402 435 408 425

C413 416 421 404 423 402

C424 401 422 404 420 409

C416 418 414 423 414 431

C414 438 417 450 418 450

C419 450 419 448 419 445

Z

M556 445

C555 443 555 440 555 438

C555 433 554 430 552 431

C552 432 552 434 551 437

C551 441 551 442 554 445

C557 449 558 448 556 445

Z

M303 418

C306 414 311 408 314 404

L320 398

L312 390

C301 380 290 369 288 366

C285 362 285 359 288 343

C291 328 292 319 290 316

C289 315 286 313 284 312

C280 309 280 309 278 310

C273 313 273 316 274 320

C276 325 277 330 276 331

C275 331 272 329 270 326

C267 323 264 320 263 320

C262 320 260 321 258 323

C255 326 255 327 259 334

C261 336 262 339 262 340

C262 342 262 342 259 342

C257 341 255 341 253 340

C251 340 250 340 249 341

C247 343 247 343 247 341

C246 338 243 339 239 342

L236 346

L239 346

C241 347 244 347 245 346

C246 345 247 346 247 347

C248 349 251 350 255 352

C258 353 261 355 261 355

C261 356 258 357 255 358

C247 361 246 363 251 368

C253 370 256 371 259 372

C265 373 265 373 267 380

C267 383 268 384 270 381

C272 380 272 381 273 389

C276 403 276 402 279 400

C283 397 283 397 283 401

C283 405 285 413 286 413

C286 413 287 412 289 411

L291 409

L292 415

C294 422 296 428 297 426

C297 426 300 422 303 418

Z

M242 370

C246 369 247 368 247 366

C247 363 244 364 240 367

C237 370 236 372 237 372

C238 372 240 371 242 370

Z

M382 358

L386 356

L380 356

C377 356 373 356 371 357

C368 357 368 357 369 359

C371 361 377 360 382 358

Z

M390 352

C390 352 389 350 388 350

C386 348 384 348 373 348

L360 348

L351 343

C347 341 343 339 343 340

C343 342 353 350 358 352

C362 353 390 353 390 352

Z

M387 343

C386 342 383 342 379 342

L373 342

L378 343

C387 344 387 344 387 343

Z

M454 321

C457 319 459 317 459 316

C459 315 461 313 463 311

C467 308 467 307 466 305

C465 303 464 303 460 304

C454 304 452 303 454 297

C455 293 454 293 452 291

L450 289

L446 291

C443 293 443 293 440 292

C437 290 437 290 438 286

C438 281 438 281 435 280

C432 278 431 278 429 281

C424 286 419 283 419 275

C419 274 418 273 416 272

C413 272 412 273 412 277

C412 278 411 280 411 280

C410 281 409 283 409 284

C407 293 406 291 418 297

C431 303 438 309 445 318

C447 321 449 324 449 324

C450 324 452 323 454 321

Z

M257 321

C259 319 259 319 257 317

C256 316 254 315 251 315

C248 315 246 315 246 315

C246 316 247 318 249 319

C253 323 255 324 257 321

Z

M274 312

C275 311 276 309 276 309

C275 306 266 304 265 306

C264 307 270 314 272 314

C272 314 273 313 274 312

Z

M566 413

C567 409 568 408 569 409

C569 410 566 416 566 416

C565 416 566 415 566 413

Z

M365 406

C368 397 374 388 385 379

L392 373

L383 381

C375 389 371 395 373 396

C375 398 398 380 405 372

C407 370 409 368 408 370

C407 373 390 388 382 394

C379 396 373 401 370 403

C366 408 365 408 365 406

Z

M405 401

C405 399 405 396 406 396

C407 395 407 396 407 398

L407 401

L415 393

C422 387 423 386 420 390

C418 392 414 397 411 401

L405 407

L405 401

Z

M396 394

C396 391 396 388 397 387

C398 386 398 386 398 388

C398 390 398 391 399 391

C399 391 403 388 406 385

C413 379 413 380 403 390

C401 392 399 395 398 397

L396 400

L396 394

Z

M429 391

C429 390 429 389 430 388

C431 387 431 387 431 388

C431 388 431 389 430 390

C429 391 429 391 429 391

Z

M362 384

C363 383 364 383 364 383

C365 383 364 384 363 385

C361 386 361 386 362 384

Z

M419 371

C419 369 419 367 420 367

C421 366 421 367 421 368

C421 370 421 370 424 368

C427 367 429 364 431 360

C432 358 433 357 433 358

C433 360 421 375 420 375

C419 375 419 373 419 371

Z

M448 315

C446 313 446 311 448 312

C450 313 453 317 451 317

C451 317 449 316 448 315

Z

M438 304

C436 303 436 302 437 302

C439 302 442 304 442 305

C442 307 439 306 438 304

Z

M426 297

C425 296 425 295 425 295

C426 294 431 296 431 297

C431 298 429 298 426 297

Z

M414 291

C413 290 413 289 413 288

C414 287 419 290 419 291

C419 292 417 292 414 291

Z

"/>

</svg>

